G04 #@! TF.GenerationSoftware,KiCad,Pcbnew,(5.1.4)-1*
G04 #@! TF.CreationDate,2020-04-21T16:32:33+02:00*
G04 #@! TF.ProjectId,Placa_lopy4,506c6163-615f-46c6-9f70-79342e6b6963,rev?*
G04 #@! TF.SameCoordinates,Original*
G04 #@! TF.FileFunction,Soldermask,Bot*
G04 #@! TF.FilePolarity,Negative*
%FSLAX46Y46*%
G04 Gerber Fmt 4.6, Leading zero omitted, Abs format (unit mm)*
G04 Created by KiCad (PCBNEW (5.1.4)-1) date 2020-04-21 16:32:33*
%MOMM*%
%LPD*%
G04 APERTURE LIST*
%ADD10O,1.700000X1.700000*%
%ADD11R,1.700000X1.700000*%
%ADD12C,1.524000*%
%ADD13C,5.000000*%
%ADD14R,1.524000X1.524000*%
%ADD15O,1.400000X1.400000*%
%ADD16C,1.400000*%
%ADD17C,3.500000*%
%ADD18C,2.400000*%
%ADD19C,1.800000*%
%ADD20R,1.800000X1.800000*%
G04 APERTURE END LIST*
D10*
X128778000Y-127254000D03*
X126238000Y-127254000D03*
X123698000Y-127254000D03*
D11*
X121158000Y-127254000D03*
D12*
X158164000Y-129832000D03*
X158164000Y-127292000D03*
X158164000Y-119672000D03*
X158164000Y-122212000D03*
X158164000Y-124752000D03*
X165784000Y-119672000D03*
X165784000Y-122212000D03*
X165784000Y-129832000D03*
X165784000Y-127292000D03*
X165784000Y-124752000D03*
X113470000Y-122522000D03*
X116010000Y-122522000D03*
X118550000Y-122522000D03*
X121090000Y-122522000D03*
X123630000Y-122522000D03*
X126170000Y-122522000D03*
X128710000Y-122522000D03*
X131250000Y-122522000D03*
X133790000Y-122522000D03*
X136330000Y-122522000D03*
X138870000Y-122522000D03*
X141410000Y-122522000D03*
X143950000Y-122522000D03*
X113470000Y-104742000D03*
X116010000Y-104742000D03*
X118550000Y-104742000D03*
X121090000Y-104742000D03*
X123630000Y-104742000D03*
X126170000Y-104742000D03*
X128710000Y-104742000D03*
X131250000Y-104742000D03*
X133790000Y-104742000D03*
X136330000Y-104742000D03*
X138870000Y-104742000D03*
X141410000Y-104742000D03*
X143950000Y-104742000D03*
X146490000Y-122522000D03*
X146490000Y-104742000D03*
D13*
X104508000Y-145400000D03*
X104508000Y-129800000D03*
D12*
X113808000Y-132620000D03*
X113808000Y-135160000D03*
X113808000Y-142780000D03*
D14*
X113808000Y-140240000D03*
D12*
X113808000Y-137700000D03*
X157910000Y-146342000D03*
X157910000Y-143802000D03*
X157910000Y-136182000D03*
X157910000Y-138722000D03*
X157910000Y-141262000D03*
X165530000Y-136182000D03*
X165530000Y-138722000D03*
X165530000Y-146342000D03*
X165530000Y-143802000D03*
X165530000Y-141262000D03*
X132962000Y-142408000D03*
X132962000Y-139868000D03*
D14*
X132962000Y-137328000D03*
X132962000Y-134788000D03*
D12*
X132962000Y-132248000D03*
D15*
X158750000Y-110998000D03*
D16*
X163830000Y-110998000D03*
D15*
X158750000Y-114554000D03*
D16*
X163830000Y-114554000D03*
D10*
X171450000Y-132842000D03*
X173990000Y-132842000D03*
D11*
X176530000Y-132842000D03*
D10*
X171450000Y-139446000D03*
X173990000Y-139446000D03*
D11*
X176530000Y-139446000D03*
D10*
X173482000Y-146558000D03*
D11*
X176022000Y-146558000D03*
D17*
X150424000Y-127508000D03*
D18*
X145824000Y-128708000D03*
D17*
X141224000Y-127508000D03*
D19*
X181356000Y-131318000D03*
D20*
X181356000Y-133858000D03*
D19*
X181356000Y-138176000D03*
D20*
X181356000Y-140716000D03*
M02*
