G04 #@! TF.GenerationSoftware,KiCad,Pcbnew,(5.1.4)-1*
G04 #@! TF.CreationDate,2020-04-21T16:32:33+02:00*
G04 #@! TF.ProjectId,Placa_lopy4,506c6163-615f-46c6-9f70-79342e6b6963,rev?*
G04 #@! TF.SameCoordinates,Original*
G04 #@! TF.FileFunction,Soldermask,Top*
G04 #@! TF.FilePolarity,Negative*
%FSLAX46Y46*%
G04 Gerber Fmt 4.6, Leading zero omitted, Abs format (unit mm)*
G04 Created by KiCad (PCBNEW (5.1.4)-1) date 2020-04-21 16:32:33*
%MOMM*%
%LPD*%
G04 APERTURE LIST*
%ADD10C,0.300000*%
%ADD11O,1.700000X1.700000*%
%ADD12R,1.700000X1.700000*%
%ADD13C,1.524000*%
%ADD14C,5.000000*%
%ADD15R,1.524000X1.524000*%
%ADD16O,1.400000X1.400000*%
%ADD17C,1.400000*%
%ADD18C,3.500000*%
%ADD19C,2.400000*%
%ADD20C,1.800000*%
%ADD21R,1.800000X1.800000*%
G04 APERTURE END LIST*
D10*
X170757142Y-101578571D02*
X171757142Y-101578571D01*
X171114285Y-103078571D01*
X172257142Y-101721428D02*
X172328571Y-101650000D01*
X172471428Y-101578571D01*
X172828571Y-101578571D01*
X172971428Y-101650000D01*
X173042857Y-101721428D01*
X173114285Y-101864285D01*
X173114285Y-102007142D01*
X173042857Y-102221428D01*
X172185714Y-103078571D01*
X173114285Y-103078571D01*
X174042857Y-101578571D02*
X174185714Y-101578571D01*
X174328571Y-101650000D01*
X174400000Y-101721428D01*
X174471428Y-101864285D01*
X174542857Y-102150000D01*
X174542857Y-102507142D01*
X174471428Y-102792857D01*
X174400000Y-102935714D01*
X174328571Y-103007142D01*
X174185714Y-103078571D01*
X174042857Y-103078571D01*
X173900000Y-103007142D01*
X173828571Y-102935714D01*
X173757142Y-102792857D01*
X173685714Y-102507142D01*
X173685714Y-102150000D01*
X173757142Y-101864285D01*
X173828571Y-101721428D01*
X173900000Y-101650000D01*
X174042857Y-101578571D01*
X174971428Y-102078571D02*
X175542857Y-102078571D01*
X175185714Y-101578571D02*
X175185714Y-102864285D01*
X175257142Y-103007142D01*
X175400000Y-103078571D01*
X175542857Y-103078571D01*
X176614285Y-103007142D02*
X176471428Y-103078571D01*
X176185714Y-103078571D01*
X176042857Y-103007142D01*
X175971428Y-102864285D01*
X175971428Y-102292857D01*
X176042857Y-102150000D01*
X176185714Y-102078571D01*
X176471428Y-102078571D01*
X176614285Y-102150000D01*
X176685714Y-102292857D01*
X176685714Y-102435714D01*
X175971428Y-102578571D01*
X177971428Y-103007142D02*
X177828571Y-103078571D01*
X177542857Y-103078571D01*
X177400000Y-103007142D01*
X177328571Y-102935714D01*
X177257142Y-102792857D01*
X177257142Y-102364285D01*
X177328571Y-102221428D01*
X177400000Y-102150000D01*
X177542857Y-102078571D01*
X177828571Y-102078571D01*
X177971428Y-102150000D01*
D11*
X128778000Y-127254000D03*
X126238000Y-127254000D03*
X123698000Y-127254000D03*
D12*
X121158000Y-127254000D03*
D13*
X158164000Y-129832000D03*
X158164000Y-127292000D03*
X158164000Y-119672000D03*
X158164000Y-122212000D03*
X158164000Y-124752000D03*
X165784000Y-119672000D03*
X165784000Y-122212000D03*
X165784000Y-129832000D03*
X165784000Y-127292000D03*
X165784000Y-124752000D03*
X113470000Y-122522000D03*
X116010000Y-122522000D03*
X118550000Y-122522000D03*
X121090000Y-122522000D03*
X123630000Y-122522000D03*
X126170000Y-122522000D03*
X128710000Y-122522000D03*
X131250000Y-122522000D03*
X133790000Y-122522000D03*
X136330000Y-122522000D03*
X138870000Y-122522000D03*
X141410000Y-122522000D03*
X143950000Y-122522000D03*
X113470000Y-104742000D03*
X116010000Y-104742000D03*
X118550000Y-104742000D03*
X121090000Y-104742000D03*
X123630000Y-104742000D03*
X126170000Y-104742000D03*
X128710000Y-104742000D03*
X131250000Y-104742000D03*
X133790000Y-104742000D03*
X136330000Y-104742000D03*
X138870000Y-104742000D03*
X141410000Y-104742000D03*
X143950000Y-104742000D03*
X146490000Y-122522000D03*
X146490000Y-104742000D03*
D14*
X104508000Y-145400000D03*
X104508000Y-129800000D03*
D13*
X113808000Y-132620000D03*
X113808000Y-135160000D03*
X113808000Y-142780000D03*
D15*
X113808000Y-140240000D03*
D13*
X113808000Y-137700000D03*
X157910000Y-146342000D03*
X157910000Y-143802000D03*
X157910000Y-136182000D03*
X157910000Y-138722000D03*
X157910000Y-141262000D03*
X165530000Y-136182000D03*
X165530000Y-138722000D03*
X165530000Y-146342000D03*
X165530000Y-143802000D03*
X165530000Y-141262000D03*
X132962000Y-142408000D03*
X132962000Y-139868000D03*
D15*
X132962000Y-137328000D03*
X132962000Y-134788000D03*
D13*
X132962000Y-132248000D03*
D16*
X158750000Y-110998000D03*
D17*
X163830000Y-110998000D03*
D16*
X158750000Y-114554000D03*
D17*
X163830000Y-114554000D03*
D11*
X171450000Y-132842000D03*
X173990000Y-132842000D03*
D12*
X176530000Y-132842000D03*
D11*
X171450000Y-139446000D03*
X173990000Y-139446000D03*
D12*
X176530000Y-139446000D03*
D11*
X173482000Y-146558000D03*
D12*
X176022000Y-146558000D03*
D18*
X150424000Y-127508000D03*
D19*
X145824000Y-128708000D03*
D18*
X141224000Y-127508000D03*
D20*
X181356000Y-131318000D03*
D21*
X181356000Y-133858000D03*
D20*
X181356000Y-138176000D03*
D21*
X181356000Y-140716000D03*
M02*
