G04 #@! TF.GenerationSoftware,KiCad,Pcbnew,(5.1.4)-1*
G04 #@! TF.CreationDate,2020-04-21T16:32:33+02:00*
G04 #@! TF.ProjectId,Placa_lopy4,506c6163-615f-46c6-9f70-79342e6b6963,rev?*
G04 #@! TF.SameCoordinates,Original*
G04 #@! TF.FileFunction,Legend,Top*
G04 #@! TF.FilePolarity,Positive*
%FSLAX46Y46*%
G04 Gerber Fmt 4.6, Leading zero omitted, Abs format (unit mm)*
G04 Created by KiCad (PCBNEW (5.1.4)-1) date 2020-04-21 16:32:33*
%MOMM*%
%LPD*%
G04 APERTURE LIST*
%ADD10C,0.200000*%
%ADD11C,0.100000*%
%ADD12C,0.150000*%
%ADD13C,0.120000*%
%ADD14C,0.360000*%
G04 APERTURE END LIST*
D10*
X172778571Y-105878571D02*
X172064285Y-105878571D01*
X172064285Y-104378571D01*
X173492857Y-105878571D02*
X173350000Y-105807142D01*
X173278571Y-105735714D01*
X173207142Y-105592857D01*
X173207142Y-105164285D01*
X173278571Y-105021428D01*
X173350000Y-104950000D01*
X173492857Y-104878571D01*
X173707142Y-104878571D01*
X173850000Y-104950000D01*
X173921428Y-105021428D01*
X173992857Y-105164285D01*
X173992857Y-105592857D01*
X173921428Y-105735714D01*
X173850000Y-105807142D01*
X173707142Y-105878571D01*
X173492857Y-105878571D01*
X174635714Y-105878571D02*
X174635714Y-104378571D01*
X175207142Y-104378571D01*
X175350000Y-104450000D01*
X175421428Y-104521428D01*
X175492857Y-104664285D01*
X175492857Y-104878571D01*
X175421428Y-105021428D01*
X175350000Y-105092857D01*
X175207142Y-105164285D01*
X174635714Y-105164285D01*
X175992857Y-104878571D02*
X176350000Y-105878571D01*
X176707142Y-104878571D02*
X176350000Y-105878571D01*
X176207142Y-106235714D01*
X176135714Y-106307142D01*
X175992857Y-106378571D01*
X179064285Y-104878571D02*
X179064285Y-105878571D01*
X178707142Y-104307142D02*
X178350000Y-105378571D01*
X179278571Y-105378571D01*
D11*
X175850000Y-130850000D02*
X175816666Y-130883333D01*
X175716666Y-130916666D01*
X175650000Y-130916666D01*
X175550000Y-130883333D01*
X175483333Y-130816666D01*
X175450000Y-130750000D01*
X175416666Y-130616666D01*
X175416666Y-130516666D01*
X175450000Y-130383333D01*
X175483333Y-130316666D01*
X175550000Y-130250000D01*
X175650000Y-130216666D01*
X175716666Y-130216666D01*
X175816666Y-130250000D01*
X175850000Y-130283333D01*
X176283333Y-130216666D02*
X176416666Y-130216666D01*
X176483333Y-130250000D01*
X176550000Y-130316666D01*
X176583333Y-130450000D01*
X176583333Y-130683333D01*
X176550000Y-130816666D01*
X176483333Y-130883333D01*
X176416666Y-130916666D01*
X176283333Y-130916666D01*
X176216666Y-130883333D01*
X176150000Y-130816666D01*
X176116666Y-130683333D01*
X176116666Y-130450000D01*
X176150000Y-130316666D01*
X176216666Y-130250000D01*
X176283333Y-130216666D01*
X176883333Y-130916666D02*
X176883333Y-130216666D01*
X177116666Y-130716666D01*
X177350000Y-130216666D01*
X177350000Y-130916666D01*
X173233333Y-130916666D02*
X173233333Y-130216666D01*
X173633333Y-130916666D01*
X173633333Y-130216666D01*
X174100000Y-130216666D02*
X174233333Y-130216666D01*
X174300000Y-130250000D01*
X174366666Y-130316666D01*
X174400000Y-130450000D01*
X174400000Y-130683333D01*
X174366666Y-130816666D01*
X174300000Y-130883333D01*
X174233333Y-130916666D01*
X174100000Y-130916666D01*
X174033333Y-130883333D01*
X173966666Y-130816666D01*
X173933333Y-130683333D01*
X173933333Y-130450000D01*
X173966666Y-130316666D01*
X174033333Y-130250000D01*
X174100000Y-130216666D01*
X170850000Y-130916666D02*
X170850000Y-130216666D01*
X171250000Y-130916666D01*
X171250000Y-130216666D01*
X171983333Y-130850000D02*
X171950000Y-130883333D01*
X171850000Y-130916666D01*
X171783333Y-130916666D01*
X171683333Y-130883333D01*
X171616666Y-130816666D01*
X171583333Y-130750000D01*
X171550000Y-130616666D01*
X171550000Y-130516666D01*
X171583333Y-130383333D01*
X171616666Y-130316666D01*
X171683333Y-130250000D01*
X171783333Y-130216666D01*
X171850000Y-130216666D01*
X171950000Y-130250000D01*
X171983333Y-130283333D01*
X170850000Y-137516666D02*
X170850000Y-136816666D01*
X171250000Y-137516666D01*
X171250000Y-136816666D01*
X171983333Y-137450000D02*
X171950000Y-137483333D01*
X171850000Y-137516666D01*
X171783333Y-137516666D01*
X171683333Y-137483333D01*
X171616666Y-137416666D01*
X171583333Y-137350000D01*
X171550000Y-137216666D01*
X171550000Y-137116666D01*
X171583333Y-136983333D01*
X171616666Y-136916666D01*
X171683333Y-136850000D01*
X171783333Y-136816666D01*
X171850000Y-136816666D01*
X171950000Y-136850000D01*
X171983333Y-136883333D01*
X173233333Y-137516666D02*
X173233333Y-136816666D01*
X173633333Y-137516666D01*
X173633333Y-136816666D01*
X174100000Y-136816666D02*
X174233333Y-136816666D01*
X174300000Y-136850000D01*
X174366666Y-136916666D01*
X174400000Y-137050000D01*
X174400000Y-137283333D01*
X174366666Y-137416666D01*
X174300000Y-137483333D01*
X174233333Y-137516666D01*
X174100000Y-137516666D01*
X174033333Y-137483333D01*
X173966666Y-137416666D01*
X173933333Y-137283333D01*
X173933333Y-137050000D01*
X173966666Y-136916666D01*
X174033333Y-136850000D01*
X174100000Y-136816666D01*
X175850000Y-137450000D02*
X175816666Y-137483333D01*
X175716666Y-137516666D01*
X175650000Y-137516666D01*
X175550000Y-137483333D01*
X175483333Y-137416666D01*
X175450000Y-137350000D01*
X175416666Y-137216666D01*
X175416666Y-137116666D01*
X175450000Y-136983333D01*
X175483333Y-136916666D01*
X175550000Y-136850000D01*
X175650000Y-136816666D01*
X175716666Y-136816666D01*
X175816666Y-136850000D01*
X175850000Y-136883333D01*
X176283333Y-136816666D02*
X176416666Y-136816666D01*
X176483333Y-136850000D01*
X176550000Y-136916666D01*
X176583333Y-137050000D01*
X176583333Y-137283333D01*
X176550000Y-137416666D01*
X176483333Y-137483333D01*
X176416666Y-137516666D01*
X176283333Y-137516666D01*
X176216666Y-137483333D01*
X176150000Y-137416666D01*
X176116666Y-137283333D01*
X176116666Y-137050000D01*
X176150000Y-136916666D01*
X176216666Y-136850000D01*
X176283333Y-136816666D01*
X176883333Y-137516666D02*
X176883333Y-136816666D01*
X177116666Y-137316666D01*
X177350000Y-136816666D01*
X177350000Y-137516666D01*
D12*
X169573809Y-135502380D02*
X169573809Y-134502380D01*
X170050000Y-134835714D02*
X170050000Y-135502380D01*
X170050000Y-134930952D02*
X170097619Y-134883333D01*
X170192857Y-134835714D01*
X170335714Y-134835714D01*
X170430952Y-134883333D01*
X170478571Y-134978571D01*
X170478571Y-135502380D01*
X170811904Y-134835714D02*
X171192857Y-134835714D01*
X170954761Y-134502380D02*
X170954761Y-135359523D01*
X171002380Y-135454761D01*
X171097619Y-135502380D01*
X171192857Y-135502380D01*
X171907142Y-135454761D02*
X171811904Y-135502380D01*
X171621428Y-135502380D01*
X171526190Y-135454761D01*
X171478571Y-135359523D01*
X171478571Y-134978571D01*
X171526190Y-134883333D01*
X171621428Y-134835714D01*
X171811904Y-134835714D01*
X171907142Y-134883333D01*
X171954761Y-134978571D01*
X171954761Y-135073809D01*
X171478571Y-135169047D01*
X172383333Y-135502380D02*
X172383333Y-134835714D01*
X172383333Y-135026190D02*
X172430952Y-134930952D01*
X172478571Y-134883333D01*
X172573809Y-134835714D01*
X172669047Y-134835714D01*
X173002380Y-135502380D02*
X173002380Y-134835714D01*
X173002380Y-134502380D02*
X172954761Y-134550000D01*
X173002380Y-134597619D01*
X173050000Y-134550000D01*
X173002380Y-134502380D01*
X173002380Y-134597619D01*
X173621428Y-135502380D02*
X173526190Y-135454761D01*
X173478571Y-135407142D01*
X173430952Y-135311904D01*
X173430952Y-135026190D01*
X173478571Y-134930952D01*
X173526190Y-134883333D01*
X173621428Y-134835714D01*
X173764285Y-134835714D01*
X173859523Y-134883333D01*
X173907142Y-134930952D01*
X173954761Y-135026190D01*
X173954761Y-135311904D01*
X173907142Y-135407142D01*
X173859523Y-135454761D01*
X173764285Y-135502380D01*
X173621428Y-135502380D01*
X174383333Y-135502380D02*
X174383333Y-134835714D01*
X174383333Y-135026190D02*
X174430952Y-134930952D01*
X174478571Y-134883333D01*
X174573809Y-134835714D01*
X174669047Y-134835714D01*
X169350000Y-135700000D02*
X183450000Y-135700000D01*
X183450000Y-129400000D02*
X169350000Y-129400000D01*
X169350000Y-129400000D02*
X169350000Y-135700000D01*
X183450000Y-135700000D02*
X183450000Y-129400000D01*
X170116666Y-141350000D02*
X170021428Y-141302380D01*
X169878571Y-141302380D01*
X169735714Y-141350000D01*
X169640476Y-141445238D01*
X169592857Y-141540476D01*
X169545238Y-141730952D01*
X169545238Y-141873809D01*
X169592857Y-142064285D01*
X169640476Y-142159523D01*
X169735714Y-142254761D01*
X169878571Y-142302380D01*
X169973809Y-142302380D01*
X170116666Y-142254761D01*
X170164285Y-142207142D01*
X170164285Y-141873809D01*
X169973809Y-141873809D01*
X170735714Y-142302380D02*
X170640476Y-142254761D01*
X170592857Y-142207142D01*
X170545238Y-142111904D01*
X170545238Y-141826190D01*
X170592857Y-141730952D01*
X170640476Y-141683333D01*
X170735714Y-141635714D01*
X170878571Y-141635714D01*
X170973809Y-141683333D01*
X171021428Y-141730952D01*
X171069047Y-141826190D01*
X171069047Y-142111904D01*
X171021428Y-142207142D01*
X170973809Y-142254761D01*
X170878571Y-142302380D01*
X170735714Y-142302380D01*
X171640476Y-142302380D02*
X171545238Y-142254761D01*
X171497619Y-142159523D01*
X171497619Y-141302380D01*
X172021428Y-141635714D02*
X172021428Y-142635714D01*
X172021428Y-141683333D02*
X172116666Y-141635714D01*
X172307142Y-141635714D01*
X172402380Y-141683333D01*
X172450000Y-141730952D01*
X172497619Y-141826190D01*
X172497619Y-142111904D01*
X172450000Y-142207142D01*
X172402380Y-142254761D01*
X172307142Y-142302380D01*
X172116666Y-142302380D01*
X172021428Y-142254761D01*
X173307142Y-142254761D02*
X173211904Y-142302380D01*
X173021428Y-142302380D01*
X172926190Y-142254761D01*
X172878571Y-142159523D01*
X172878571Y-141778571D01*
X172926190Y-141683333D01*
X173021428Y-141635714D01*
X173211904Y-141635714D01*
X173307142Y-141683333D01*
X173354761Y-141778571D01*
X173354761Y-141873809D01*
X172878571Y-141969047D01*
X169350000Y-142600000D02*
X183450000Y-142600000D01*
X169350000Y-136400000D02*
X169350000Y-142600000D01*
X183450000Y-136400000D02*
X169350000Y-136400000D01*
X183450000Y-142600000D02*
X183450000Y-136400000D01*
X175719047Y-148971428D02*
X176480952Y-148971428D01*
X173119047Y-148971428D02*
X173880952Y-148971428D01*
X173500000Y-149352380D02*
X173500000Y-148590476D01*
D13*
X119828000Y-128584000D02*
X119828000Y-127254000D01*
X121158000Y-128584000D02*
X119828000Y-128584000D01*
X122428000Y-128584000D02*
X122428000Y-125924000D01*
X122428000Y-125924000D02*
X130108000Y-125924000D01*
X122428000Y-128584000D02*
X130108000Y-128584000D01*
X130108000Y-128584000D02*
X130108000Y-125924000D01*
D14*
X159824000Y-124802000D02*
X160824000Y-127802000D01*
X159824000Y-121602000D02*
X159824000Y-124802000D01*
D13*
X159824000Y-122202000D02*
X159024000Y-122202000D01*
X159824000Y-124802000D02*
X159024000Y-124802000D01*
X159824000Y-127402000D02*
X159024000Y-127402000D01*
X164024000Y-127402000D02*
X164824000Y-127402000D01*
X164024000Y-124802000D02*
X164824000Y-124802000D01*
X164024000Y-122202000D02*
X164824000Y-122202000D01*
D14*
X164024000Y-124802000D02*
X163024000Y-127802000D01*
X164024000Y-121602000D02*
X164024000Y-124802000D01*
D13*
X160024000Y-119602000D02*
X159224000Y-119602000D01*
X164024000Y-119602000D02*
X164824000Y-119602000D01*
X163024000Y-119002000D02*
X161024000Y-120402000D01*
X164024000Y-119002000D02*
X164024000Y-119202000D01*
X160024000Y-119002000D02*
X164024000Y-119002000D01*
X160024000Y-120402000D02*
X160024000Y-119002000D01*
X164024000Y-120402000D02*
X160024000Y-120402000D01*
X164024000Y-119202000D02*
X164024000Y-120402000D01*
X157324000Y-117602000D02*
X166624000Y-117602000D01*
X157324000Y-131902000D02*
X157324000Y-117602000D01*
X166624000Y-131902000D02*
X157324000Y-131902000D01*
X166624000Y-117602000D02*
X166624000Y-131902000D01*
X108810000Y-106832000D02*
X148810000Y-106832000D01*
X108810000Y-120832000D02*
X108810000Y-106832000D01*
X148810000Y-120832000D02*
X108810000Y-120832000D01*
X148810000Y-106832000D02*
X148810000Y-120832000D01*
X105304427Y-105032000D02*
G75*
G03X105304427Y-105032000I-894427J0D01*
G01*
X154658528Y-105832000D02*
G75*
G03X154658528Y-105832000I-848528J0D01*
G01*
X153234621Y-121432000D02*
G75*
G03X153234621Y-121432000I-824621J0D01*
G01*
X154672742Y-113632000D02*
G75*
G03X154672742Y-113632000I-2262742J0D01*
G01*
X106210000Y-113632000D02*
X101210000Y-113632000D01*
X106210000Y-123632000D02*
X106210000Y-113632000D01*
X156210000Y-103632000D02*
X101210000Y-103632000D01*
X101210000Y-103632000D02*
X101210000Y-123632000D01*
X156210000Y-123632000D02*
X101210000Y-123632000D01*
X156210000Y-103632000D02*
X156210000Y-123632000D01*
X101608000Y-127000000D02*
X114808000Y-127000000D01*
X101608000Y-148400000D02*
X101608000Y-127000000D01*
X114808000Y-148400000D02*
X101608000Y-148400000D01*
X114808000Y-127000000D02*
X114808000Y-148400000D01*
D14*
X159570000Y-141312000D02*
X160570000Y-144312000D01*
X159570000Y-138112000D02*
X159570000Y-141312000D01*
D13*
X159570000Y-138712000D02*
X158770000Y-138712000D01*
X159570000Y-141312000D02*
X158770000Y-141312000D01*
X159570000Y-143912000D02*
X158770000Y-143912000D01*
X163770000Y-143912000D02*
X164570000Y-143912000D01*
X163770000Y-141312000D02*
X164570000Y-141312000D01*
X163770000Y-138712000D02*
X164570000Y-138712000D01*
D14*
X163770000Y-141312000D02*
X162770000Y-144312000D01*
X163770000Y-138112000D02*
X163770000Y-141312000D01*
D13*
X159770000Y-136112000D02*
X158970000Y-136112000D01*
X163770000Y-136112000D02*
X164570000Y-136112000D01*
X162770000Y-135512000D02*
X160770000Y-136912000D01*
X163770000Y-135512000D02*
X163770000Y-135712000D01*
X159770000Y-135512000D02*
X163770000Y-135512000D01*
X159770000Y-136912000D02*
X159770000Y-135512000D01*
X163770000Y-136912000D02*
X159770000Y-136912000D01*
X163770000Y-135712000D02*
X163770000Y-136912000D01*
X157070000Y-134112000D02*
X166370000Y-134112000D01*
X157070000Y-148412000D02*
X157070000Y-134112000D01*
X166370000Y-148412000D02*
X157070000Y-148412000D01*
X166370000Y-134112000D02*
X166370000Y-148412000D01*
X116432000Y-148138000D02*
X134232000Y-148138000D01*
X116432000Y-130338000D02*
X116432000Y-148138000D01*
X134232000Y-130338000D02*
X116432000Y-130338000D01*
X134232000Y-130338000D02*
X134232000Y-148138000D01*
X163210000Y-110078000D02*
X159370000Y-110078000D01*
X163210000Y-111918000D02*
X159370000Y-111918000D01*
X163210000Y-113634000D02*
X159370000Y-113634000D01*
X163210000Y-115474000D02*
X159370000Y-115474000D01*
X177860000Y-131512000D02*
X177860000Y-132842000D01*
X176530000Y-131512000D02*
X177860000Y-131512000D01*
X175260000Y-131512000D02*
X175260000Y-134172000D01*
X175260000Y-134172000D02*
X170120000Y-134172000D01*
X175260000Y-131512000D02*
X170120000Y-131512000D01*
X170120000Y-131512000D02*
X170120000Y-134172000D01*
X177860000Y-138116000D02*
X177860000Y-139446000D01*
X176530000Y-138116000D02*
X177860000Y-138116000D01*
X175260000Y-138116000D02*
X175260000Y-140776000D01*
X175260000Y-140776000D02*
X170120000Y-140776000D01*
X175260000Y-138116000D02*
X170120000Y-138116000D01*
X170120000Y-138116000D02*
X170120000Y-140776000D01*
X177352000Y-145228000D02*
X177352000Y-146558000D01*
X176022000Y-145228000D02*
X177352000Y-145228000D01*
X174752000Y-145228000D02*
X174752000Y-147888000D01*
X174752000Y-147888000D02*
X172152000Y-147888000D01*
X174752000Y-145228000D02*
X172152000Y-145228000D01*
X172152000Y-145228000D02*
X172152000Y-147888000D01*
X151244000Y-125708000D02*
X155824000Y-125708000D01*
X142034000Y-125708000D02*
X149604000Y-125708000D01*
X135824000Y-131708000D02*
X135824000Y-125708000D01*
X155824000Y-131708000D02*
X135824000Y-131708000D01*
X155824000Y-125708000D02*
X155824000Y-131708000D01*
X135824000Y-125708000D02*
X140414000Y-125708000D01*
X182436000Y-134058000D02*
X182616000Y-134058000D01*
X180096000Y-134058000D02*
X180276000Y-134058000D01*
X182436000Y-134178000D02*
X182616000Y-134178000D01*
X180096000Y-134178000D02*
X180276000Y-134178000D01*
X182451000Y-130878000D02*
X182616000Y-130878000D01*
X180096000Y-130878000D02*
X180261000Y-130878000D01*
X182436000Y-134298000D02*
X182616000Y-134298000D01*
X180096000Y-134298000D02*
X180276000Y-134298000D01*
X182616000Y-134298000D02*
X182616000Y-130878000D01*
X180096000Y-134298000D02*
X180096000Y-130878000D01*
X182436000Y-140916000D02*
X182616000Y-140916000D01*
X180096000Y-140916000D02*
X180276000Y-140916000D01*
X182436000Y-141036000D02*
X182616000Y-141036000D01*
X180096000Y-141036000D02*
X180276000Y-141036000D01*
X182451000Y-137736000D02*
X182616000Y-137736000D01*
X180096000Y-137736000D02*
X180261000Y-137736000D01*
X182436000Y-141156000D02*
X182616000Y-141156000D01*
X180096000Y-141156000D02*
X180276000Y-141156000D01*
X182616000Y-141156000D02*
X182616000Y-137736000D01*
X180096000Y-141156000D02*
X180096000Y-137736000D01*
D12*
X118280380Y-128015904D02*
X119089904Y-128015904D01*
X119185142Y-127968285D01*
X119232761Y-127920666D01*
X119280380Y-127825428D01*
X119280380Y-127634952D01*
X119232761Y-127539714D01*
X119185142Y-127492095D01*
X119089904Y-127444476D01*
X118280380Y-127444476D01*
X118375619Y-127015904D02*
X118328000Y-126968285D01*
X118280380Y-126873047D01*
X118280380Y-126634952D01*
X118328000Y-126539714D01*
X118375619Y-126492095D01*
X118470857Y-126444476D01*
X118566095Y-126444476D01*
X118708952Y-126492095D01*
X119280380Y-127063523D01*
X119280380Y-126444476D01*
X160234380Y-124205904D02*
X161043904Y-124205904D01*
X161139142Y-124158285D01*
X161186761Y-124110666D01*
X161234380Y-124015428D01*
X161234380Y-123824952D01*
X161186761Y-123729714D01*
X161139142Y-123682095D01*
X161043904Y-123634476D01*
X160234380Y-123634476D01*
X160234380Y-122682095D02*
X160234380Y-123158285D01*
X160710571Y-123205904D01*
X160662952Y-123158285D01*
X160615333Y-123063047D01*
X160615333Y-122824952D01*
X160662952Y-122729714D01*
X160710571Y-122682095D01*
X160805809Y-122634476D01*
X161043904Y-122634476D01*
X161139142Y-122682095D01*
X161186761Y-122729714D01*
X161234380Y-122824952D01*
X161234380Y-123063047D01*
X161186761Y-123158285D01*
X161139142Y-123205904D01*
X159495428Y-119182952D02*
X159495428Y-118421047D01*
X164895428Y-119182952D02*
X164895428Y-118421047D01*
X165276380Y-118802000D02*
X164514476Y-118802000D01*
X132048095Y-115084380D02*
X132048095Y-115893904D01*
X132095714Y-115989142D01*
X132143333Y-116036761D01*
X132238571Y-116084380D01*
X132429047Y-116084380D01*
X132524285Y-116036761D01*
X132571904Y-115989142D01*
X132619523Y-115893904D01*
X132619523Y-115084380D01*
X133524285Y-115417714D02*
X133524285Y-116084380D01*
X133286190Y-115036761D02*
X133048095Y-115751047D01*
X133667142Y-115751047D01*
X106640380Y-139191904D02*
X107449904Y-139191904D01*
X107545142Y-139144285D01*
X107592761Y-139096666D01*
X107640380Y-139001428D01*
X107640380Y-138810952D01*
X107592761Y-138715714D01*
X107545142Y-138668095D01*
X107449904Y-138620476D01*
X106640380Y-138620476D01*
X106640380Y-138239523D02*
X106640380Y-137620476D01*
X107021333Y-137953809D01*
X107021333Y-137810952D01*
X107068952Y-137715714D01*
X107116571Y-137668095D01*
X107211809Y-137620476D01*
X107449904Y-137620476D01*
X107545142Y-137668095D01*
X107592761Y-137715714D01*
X107640380Y-137810952D01*
X107640380Y-138096666D01*
X107592761Y-138191904D01*
X107545142Y-138239523D01*
X160107380Y-140588904D02*
X160916904Y-140588904D01*
X161012142Y-140541285D01*
X161059761Y-140493666D01*
X161107380Y-140398428D01*
X161107380Y-140207952D01*
X161059761Y-140112714D01*
X161012142Y-140065095D01*
X160916904Y-140017476D01*
X160107380Y-140017476D01*
X161107380Y-139017476D02*
X161107380Y-139588904D01*
X161107380Y-139303190D02*
X160107380Y-139303190D01*
X160250238Y-139398428D01*
X160345476Y-139493666D01*
X160393095Y-139588904D01*
X159241428Y-135692952D02*
X159241428Y-134931047D01*
X164641428Y-135692952D02*
X164641428Y-134931047D01*
X165022380Y-135312000D02*
X164260476Y-135312000D01*
X125084380Y-139899904D02*
X125084380Y-139328476D01*
X126084380Y-139614190D02*
X125084380Y-139614190D01*
X126084380Y-138471333D02*
X126084380Y-139042761D01*
X126084380Y-138757047D02*
X125084380Y-138757047D01*
X125227238Y-138852285D01*
X125322476Y-138947523D01*
X125370095Y-139042761D01*
X161123333Y-113370380D02*
X160790000Y-112894190D01*
X160551904Y-113370380D02*
X160551904Y-112370380D01*
X160932857Y-112370380D01*
X161028095Y-112418000D01*
X161075714Y-112465619D01*
X161123333Y-112560857D01*
X161123333Y-112703714D01*
X161075714Y-112798952D01*
X161028095Y-112846571D01*
X160932857Y-112894190D01*
X160551904Y-112894190D01*
X161504285Y-112465619D02*
X161551904Y-112418000D01*
X161647142Y-112370380D01*
X161885238Y-112370380D01*
X161980476Y-112418000D01*
X162028095Y-112465619D01*
X162075714Y-112560857D01*
X162075714Y-112656095D01*
X162028095Y-112798952D01*
X161456666Y-113370380D01*
X162075714Y-113370380D01*
X161123333Y-116926380D02*
X160790000Y-116450190D01*
X160551904Y-116926380D02*
X160551904Y-115926380D01*
X160932857Y-115926380D01*
X161028095Y-115974000D01*
X161075714Y-116021619D01*
X161123333Y-116116857D01*
X161123333Y-116259714D01*
X161075714Y-116354952D01*
X161028095Y-116402571D01*
X160932857Y-116450190D01*
X160551904Y-116450190D01*
X162075714Y-116926380D02*
X161504285Y-116926380D01*
X161790000Y-116926380D02*
X161790000Y-115926380D01*
X161694761Y-116069238D01*
X161599523Y-116164476D01*
X161504285Y-116212095D01*
X178804380Y-148200857D02*
X177804380Y-148200857D01*
X178137714Y-147724666D02*
X178804380Y-147724666D01*
X178232952Y-147724666D02*
X178185333Y-147677047D01*
X178137714Y-147581809D01*
X178137714Y-147438952D01*
X178185333Y-147343714D01*
X178280571Y-147296095D01*
X178804380Y-147296095D01*
X178137714Y-146819904D02*
X179137714Y-146819904D01*
X178185333Y-146819904D02*
X178137714Y-146724666D01*
X178137714Y-146534190D01*
X178185333Y-146438952D01*
X178232952Y-146391333D01*
X178328190Y-146343714D01*
X178613904Y-146343714D01*
X178709142Y-146391333D01*
X178756761Y-146438952D01*
X178804380Y-146534190D01*
X178804380Y-146724666D01*
X178756761Y-146819904D01*
X178137714Y-145486571D02*
X178804380Y-145486571D01*
X178137714Y-145915142D02*
X178661523Y-145915142D01*
X178756761Y-145867523D01*
X178804380Y-145772285D01*
X178804380Y-145629428D01*
X178756761Y-145534190D01*
X178709142Y-145486571D01*
X178137714Y-145153238D02*
X178137714Y-144772285D01*
X177804380Y-145010380D02*
X178661523Y-145010380D01*
X178756761Y-144962761D01*
X178804380Y-144867523D01*
X178804380Y-144772285D01*
X145460666Y-124656571D02*
X145127333Y-124656571D01*
X145127333Y-125180380D02*
X145127333Y-124180380D01*
X145603523Y-124180380D01*
X146508285Y-125180380D02*
X145936857Y-125180380D01*
X146222571Y-125180380D02*
X146222571Y-124180380D01*
X146127333Y-124323238D01*
X146032095Y-124418476D01*
X145936857Y-124466095D01*
M02*
