G04 #@! TF.GenerationSoftware,KiCad,Pcbnew,(5.1.4)-1*
G04 #@! TF.CreationDate,2020-04-21T16:32:33+02:00*
G04 #@! TF.ProjectId,Placa_lopy4,506c6163-615f-46c6-9f70-79342e6b6963,rev?*
G04 #@! TF.SameCoordinates,Original*
G04 #@! TF.FileFunction,Copper,L1,Top*
G04 #@! TF.FilePolarity,Positive*
%FSLAX46Y46*%
G04 Gerber Fmt 4.6, Leading zero omitted, Abs format (unit mm)*
G04 Created by KiCad (PCBNEW (5.1.4)-1) date 2020-04-21 16:32:33*
%MOMM*%
%LPD*%
G04 APERTURE LIST*
%ADD10O,1.700000X1.700000*%
%ADD11R,1.700000X1.700000*%
%ADD12C,1.524000*%
%ADD13C,5.000000*%
%ADD14R,1.524000X1.524000*%
%ADD15O,1.400000X1.400000*%
%ADD16C,1.400000*%
%ADD17C,3.500000*%
%ADD18C,1.800000*%
%ADD19R,1.800000X1.800000*%
%ADD20C,0.250000*%
%ADD21C,0.500000*%
%ADD22C,0.254000*%
G04 APERTURE END LIST*
D10*
X128778000Y-127254000D03*
X126238000Y-127254000D03*
X123698000Y-127254000D03*
D11*
X121158000Y-127254000D03*
D12*
X158164000Y-129832000D03*
X158164000Y-127292000D03*
X158164000Y-119672000D03*
X158164000Y-122212000D03*
X158164000Y-124752000D03*
X165784000Y-119672000D03*
X165784000Y-122212000D03*
X165784000Y-129832000D03*
X165784000Y-127292000D03*
X165784000Y-124752000D03*
X113470000Y-122522000D03*
X116010000Y-122522000D03*
X118550000Y-122522000D03*
X121090000Y-122522000D03*
X123630000Y-122522000D03*
X126170000Y-122522000D03*
X128710000Y-122522000D03*
X131250000Y-122522000D03*
X133790000Y-122522000D03*
X136330000Y-122522000D03*
X138870000Y-122522000D03*
X141410000Y-122522000D03*
X143950000Y-122522000D03*
X113470000Y-104742000D03*
X116010000Y-104742000D03*
X118550000Y-104742000D03*
X121090000Y-104742000D03*
X123630000Y-104742000D03*
X126170000Y-104742000D03*
X128710000Y-104742000D03*
X131250000Y-104742000D03*
X133790000Y-104742000D03*
X136330000Y-104742000D03*
X138870000Y-104742000D03*
X141410000Y-104742000D03*
X143950000Y-104742000D03*
X146490000Y-122522000D03*
X146490000Y-104742000D03*
D13*
X104508000Y-145400000D03*
X104508000Y-129800000D03*
D12*
X113808000Y-132620000D03*
X113808000Y-135160000D03*
X113808000Y-142780000D03*
D14*
X113808000Y-140240000D03*
D12*
X113808000Y-137700000D03*
X157910000Y-146342000D03*
X157910000Y-143802000D03*
X157910000Y-136182000D03*
X157910000Y-138722000D03*
X157910000Y-141262000D03*
X165530000Y-136182000D03*
X165530000Y-138722000D03*
X165530000Y-146342000D03*
X165530000Y-143802000D03*
X165530000Y-141262000D03*
X132962000Y-142408000D03*
X132962000Y-139868000D03*
D14*
X132962000Y-137328000D03*
X132962000Y-134788000D03*
D12*
X132962000Y-132248000D03*
D15*
X158750000Y-110998000D03*
D16*
X163830000Y-110998000D03*
D15*
X158750000Y-114554000D03*
D16*
X163830000Y-114554000D03*
D10*
X171450000Y-132842000D03*
X173990000Y-132842000D03*
D11*
X176530000Y-132842000D03*
D10*
X171450000Y-139446000D03*
X173990000Y-139446000D03*
D11*
X176530000Y-139446000D03*
D10*
X173482000Y-146558000D03*
D11*
X176022000Y-146558000D03*
D17*
X150424000Y-127508000D03*
X141224000Y-127508000D03*
D18*
X181356000Y-131318000D03*
D19*
X181356000Y-133858000D03*
D18*
X181356000Y-138176000D03*
D19*
X181356000Y-140716000D03*
D20*
X179578000Y-136398000D02*
X181356000Y-138176000D01*
X179578000Y-132478000D02*
X179578000Y-136398000D01*
X166624000Y-114554000D02*
X167700000Y-115630000D01*
X163830000Y-114554000D02*
X166624000Y-114554000D01*
X167700000Y-115630000D02*
X167700000Y-124850000D01*
X167700000Y-124850000D02*
X173028000Y-130178000D01*
X173028000Y-130178000D02*
X177278000Y-130178000D01*
X177278000Y-130178000D02*
X179578000Y-132478000D01*
X180456001Y-130418001D02*
X181356000Y-131318000D01*
X179765990Y-129727990D02*
X180456001Y-130418001D01*
X168150000Y-115318000D02*
X168150000Y-124650000D01*
X163830000Y-110998000D02*
X168150000Y-115318000D01*
X168150000Y-124650000D02*
X173200000Y-129700000D01*
X173200000Y-129700000D02*
X173200000Y-129713590D01*
X173200000Y-129713590D02*
X173214400Y-129727990D01*
X173214400Y-129727990D02*
X179765990Y-129727990D01*
D21*
X150424000Y-127508000D02*
X150424000Y-147376000D01*
X150424000Y-147376000D02*
X154432000Y-151384000D01*
X168656000Y-151384000D02*
X173482000Y-146558000D01*
X154432000Y-151384000D02*
X168656000Y-151384000D01*
D20*
X133436000Y-139868000D02*
X132962000Y-139868000D01*
D21*
X141224000Y-127508000D02*
X141224000Y-132080000D01*
X141224000Y-132080000D02*
X133436000Y-139868000D01*
D20*
X166254000Y-139446000D02*
X165530000Y-138722000D01*
X171450000Y-139446000D02*
X166254000Y-139446000D01*
X167600000Y-141732000D02*
X165530000Y-143802000D01*
X173990000Y-139446000D02*
X171704000Y-141732000D01*
X171704000Y-141732000D02*
X167600000Y-141732000D01*
X171519501Y-141262000D02*
X166607630Y-141262000D01*
X166607630Y-141262000D02*
X165530000Y-141262000D01*
X175260000Y-138176000D02*
X173247499Y-138176000D01*
X176530000Y-139446000D02*
X175260000Y-138176000D01*
X173247499Y-138176000D02*
X172720000Y-138703499D01*
X172720000Y-138703499D02*
X172720000Y-140061501D01*
X172720000Y-140061501D02*
X171519501Y-141262000D01*
X165022001Y-122973999D02*
X165784000Y-122212000D01*
X171450000Y-132700000D02*
X167274000Y-128524000D01*
X171450000Y-132842000D02*
X171450000Y-132700000D01*
X167274000Y-128524000D02*
X165100000Y-128524000D01*
X165100000Y-128524000D02*
X164000000Y-127424000D01*
X164000000Y-127424000D02*
X164000000Y-123996000D01*
X164000000Y-123996000D02*
X165022001Y-122973999D01*
X168440000Y-127292000D02*
X165784000Y-127292000D01*
X173990000Y-132842000D02*
X168440000Y-127292000D01*
X166952000Y-124752000D02*
X165784000Y-124752000D01*
X172850000Y-130650000D02*
X166952000Y-124752000D01*
X176530000Y-132842000D02*
X174338000Y-130650000D01*
X174338000Y-130650000D02*
X172850000Y-130650000D01*
X136330000Y-120972000D02*
X136330000Y-122522000D01*
X144152000Y-113150000D02*
X136330000Y-120972000D01*
X157100000Y-113150000D02*
X144152000Y-113150000D01*
X158750000Y-114554000D02*
X158504000Y-114554000D01*
X158504000Y-114554000D02*
X157100000Y-113150000D01*
X162000000Y-117804000D02*
X158750000Y-114554000D01*
X162000000Y-131574370D02*
X162000000Y-117804000D01*
X165530000Y-136182000D02*
X165530000Y-135104370D01*
X165530000Y-135104370D02*
X162000000Y-131574370D01*
X158750000Y-112638000D02*
X165784000Y-119672000D01*
X158750000Y-110998000D02*
X158750000Y-112638000D01*
X143662000Y-112650000D02*
X133790000Y-122522000D01*
X158750000Y-110998000D02*
X157098000Y-112650000D01*
X157098000Y-112650000D02*
X143662000Y-112650000D01*
X131232000Y-132248000D02*
X132962000Y-132248000D01*
X126238000Y-127254000D02*
X131232000Y-132248000D01*
X144412000Y-124600000D02*
X146490000Y-122522000D01*
X139900000Y-124600000D02*
X144412000Y-124600000D01*
X132962000Y-132248000D02*
X132962000Y-131538000D01*
X132962000Y-131538000D02*
X139900000Y-124600000D01*
X123650000Y-127206000D02*
X123698000Y-127254000D01*
X123650000Y-124900000D02*
X123650000Y-127206000D01*
X124968000Y-123582000D02*
X123650000Y-124900000D01*
X136330000Y-104742000D02*
X124968000Y-116104000D01*
X124968000Y-116104000D02*
X124968000Y-123582000D01*
X133858000Y-104810000D02*
X133790000Y-104742000D01*
X133858000Y-106426000D02*
X133858000Y-104810000D01*
X122428000Y-117856000D02*
X133858000Y-106426000D01*
X122428000Y-123631000D02*
X122428000Y-117856000D01*
X121158000Y-127254000D02*
X121158000Y-124901000D01*
X121158000Y-124901000D02*
X122428000Y-123631000D01*
X113808000Y-135160000D02*
X112100000Y-133452000D01*
X112100000Y-133452000D02*
X112100000Y-114809630D01*
X121090000Y-105819630D02*
X121090000Y-104742000D01*
X112100000Y-114809630D02*
X121090000Y-105819630D01*
X139932000Y-124000000D02*
X141410000Y-122522000D01*
X127752998Y-124000000D02*
X139932000Y-124000000D01*
X125062999Y-126689999D02*
X127752998Y-124000000D01*
X113808000Y-142780000D02*
X125062999Y-131525001D01*
X125062999Y-131525001D02*
X125062999Y-126689999D01*
X118550000Y-107600000D02*
X118550000Y-104742000D01*
X111600000Y-114550000D02*
X118550000Y-107600000D01*
X113808000Y-137700000D02*
X111600000Y-135492000D01*
X111600000Y-135492000D02*
X111600000Y-114550000D01*
D22*
G36*
X183254782Y-100713267D02*
G01*
X183499855Y-100787259D01*
X183725890Y-100907443D01*
X183924281Y-101069248D01*
X184087460Y-101266497D01*
X184209220Y-101491687D01*
X184284924Y-101736247D01*
X184315000Y-102022398D01*
X184315001Y-150966484D01*
X184286733Y-151254782D01*
X184212741Y-151499855D01*
X184092554Y-151725893D01*
X183930754Y-151924279D01*
X183733503Y-152087460D01*
X183508310Y-152209221D01*
X183263753Y-152284924D01*
X182977602Y-152315000D01*
X102033505Y-152315000D01*
X101745218Y-152286733D01*
X101500145Y-152212741D01*
X101274107Y-152092554D01*
X101075721Y-151930754D01*
X100912540Y-151733503D01*
X100790779Y-151508310D01*
X100715076Y-151263753D01*
X100685000Y-150977602D01*
X100685000Y-145091229D01*
X101373000Y-145091229D01*
X101373000Y-145708771D01*
X101493476Y-146314446D01*
X101729799Y-146884979D01*
X102072886Y-147398446D01*
X102509554Y-147835114D01*
X103023021Y-148178201D01*
X103593554Y-148414524D01*
X104199229Y-148535000D01*
X104816771Y-148535000D01*
X105422446Y-148414524D01*
X105992979Y-148178201D01*
X106506446Y-147835114D01*
X106943114Y-147398446D01*
X107286201Y-146884979D01*
X107522524Y-146314446D01*
X107643000Y-145708771D01*
X107643000Y-145091229D01*
X107522524Y-144485554D01*
X107286201Y-143915021D01*
X106943114Y-143401554D01*
X106506446Y-142964886D01*
X105992979Y-142621799D01*
X105422446Y-142385476D01*
X104816771Y-142265000D01*
X104199229Y-142265000D01*
X103593554Y-142385476D01*
X103023021Y-142621799D01*
X102509554Y-142964886D01*
X102072886Y-143401554D01*
X101729799Y-143915021D01*
X101493476Y-144485554D01*
X101373000Y-145091229D01*
X100685000Y-145091229D01*
X100685000Y-126727000D01*
X103887533Y-126727000D01*
X103593554Y-126785476D01*
X103023021Y-127021799D01*
X102509554Y-127364886D01*
X102072886Y-127801554D01*
X101729799Y-128315021D01*
X101493476Y-128885554D01*
X101373000Y-129491229D01*
X101373000Y-130108771D01*
X101493476Y-130714446D01*
X101729799Y-131284979D01*
X102072886Y-131798446D01*
X102509554Y-132235114D01*
X103023021Y-132578201D01*
X103593554Y-132814524D01*
X104199229Y-132935000D01*
X104816771Y-132935000D01*
X105422446Y-132814524D01*
X105992979Y-132578201D01*
X106506446Y-132235114D01*
X106943114Y-131798446D01*
X107286201Y-131284979D01*
X107522524Y-130714446D01*
X107643000Y-130108771D01*
X107643000Y-129491229D01*
X107522524Y-128885554D01*
X107286201Y-128315021D01*
X106943114Y-127801554D01*
X106506446Y-127364886D01*
X105992979Y-127021799D01*
X105422446Y-126785476D01*
X105128467Y-126727000D01*
X108200000Y-126727000D01*
X108224776Y-126724560D01*
X108248601Y-126717333D01*
X108270557Y-126705597D01*
X108289803Y-126689803D01*
X108305597Y-126670557D01*
X108317333Y-126648601D01*
X108324560Y-126624776D01*
X108327000Y-126600037D01*
X108330486Y-114550000D01*
X110836324Y-114550000D01*
X110840001Y-114587333D01*
X110840000Y-135454678D01*
X110836324Y-135492000D01*
X110840000Y-135529322D01*
X110840000Y-135529332D01*
X110850997Y-135640985D01*
X110888017Y-135763026D01*
X110894454Y-135784246D01*
X110965026Y-135916276D01*
X111004871Y-135964826D01*
X111059999Y-136032001D01*
X111089003Y-136055804D01*
X112441628Y-137408430D01*
X112411000Y-137562408D01*
X112411000Y-137837592D01*
X112464686Y-138107490D01*
X112569995Y-138361727D01*
X112722880Y-138590535D01*
X112917465Y-138785120D01*
X113005465Y-138843920D01*
X112921518Y-138852188D01*
X112801820Y-138888498D01*
X112691506Y-138947463D01*
X112594815Y-139026815D01*
X112515463Y-139123506D01*
X112456498Y-139233820D01*
X112420188Y-139353518D01*
X112407928Y-139478000D01*
X112411000Y-139954250D01*
X112569750Y-140113000D01*
X113681000Y-140113000D01*
X113681000Y-140093000D01*
X113935000Y-140093000D01*
X113935000Y-140113000D01*
X115046250Y-140113000D01*
X115205000Y-139954250D01*
X115208072Y-139478000D01*
X115195812Y-139353518D01*
X115159502Y-139233820D01*
X115100537Y-139123506D01*
X115021185Y-139026815D01*
X114924494Y-138947463D01*
X114814180Y-138888498D01*
X114694482Y-138852188D01*
X114610535Y-138843920D01*
X114698535Y-138785120D01*
X114893120Y-138590535D01*
X115046005Y-138361727D01*
X115151314Y-138107490D01*
X115205000Y-137837592D01*
X115205000Y-137562408D01*
X115151314Y-137292510D01*
X115046005Y-137038273D01*
X114893120Y-136809465D01*
X114698535Y-136614880D01*
X114469727Y-136461995D01*
X114392485Y-136430000D01*
X114469727Y-136398005D01*
X114698535Y-136245120D01*
X114893120Y-136050535D01*
X115046005Y-135821727D01*
X115151314Y-135567490D01*
X115205000Y-135297592D01*
X115205000Y-135022408D01*
X115151314Y-134752510D01*
X115046005Y-134498273D01*
X114893120Y-134269465D01*
X114698535Y-134074880D01*
X114469727Y-133921995D01*
X114392485Y-133890000D01*
X114469727Y-133858005D01*
X114698535Y-133705120D01*
X114893120Y-133510535D01*
X115046005Y-133281727D01*
X115151314Y-133027490D01*
X115205000Y-132757592D01*
X115205000Y-132482408D01*
X115151314Y-132212510D01*
X115046005Y-131958273D01*
X114893120Y-131729465D01*
X114698535Y-131534880D01*
X114469727Y-131381995D01*
X114215490Y-131276686D01*
X113945592Y-131223000D01*
X113670408Y-131223000D01*
X113400510Y-131276686D01*
X113146273Y-131381995D01*
X112917465Y-131534880D01*
X112860000Y-131592345D01*
X112860000Y-123781431D01*
X113062510Y-123865314D01*
X113332408Y-123919000D01*
X113607592Y-123919000D01*
X113877490Y-123865314D01*
X114131727Y-123760005D01*
X114360535Y-123607120D01*
X114555120Y-123412535D01*
X114708005Y-123183727D01*
X114740000Y-123106485D01*
X114771995Y-123183727D01*
X114924880Y-123412535D01*
X115119465Y-123607120D01*
X115348273Y-123760005D01*
X115602510Y-123865314D01*
X115872408Y-123919000D01*
X116147592Y-123919000D01*
X116417490Y-123865314D01*
X116671727Y-123760005D01*
X116900535Y-123607120D01*
X117095120Y-123412535D01*
X117248005Y-123183727D01*
X117280000Y-123106485D01*
X117311995Y-123183727D01*
X117464880Y-123412535D01*
X117659465Y-123607120D01*
X117888273Y-123760005D01*
X118142510Y-123865314D01*
X118412408Y-123919000D01*
X118687592Y-123919000D01*
X118957490Y-123865314D01*
X119211727Y-123760005D01*
X119440535Y-123607120D01*
X119635120Y-123412535D01*
X119788005Y-123183727D01*
X119820000Y-123106485D01*
X119851995Y-123183727D01*
X120004880Y-123412535D01*
X120199465Y-123607120D01*
X120428273Y-123760005D01*
X120682510Y-123865314D01*
X120952408Y-123919000D01*
X121065199Y-123919000D01*
X120646998Y-124337201D01*
X120618000Y-124360999D01*
X120594202Y-124389997D01*
X120594201Y-124389998D01*
X120523026Y-124476724D01*
X120452454Y-124608754D01*
X120445714Y-124630974D01*
X120408998Y-124752014D01*
X120398099Y-124862668D01*
X120394324Y-124901000D01*
X120398001Y-124938332D01*
X120398001Y-125765928D01*
X120308000Y-125765928D01*
X120183518Y-125778188D01*
X120063820Y-125814498D01*
X119953506Y-125873463D01*
X119856815Y-125952815D01*
X119777463Y-126049506D01*
X119718498Y-126159820D01*
X119682188Y-126279518D01*
X119669928Y-126404000D01*
X119669928Y-128104000D01*
X119682188Y-128228482D01*
X119718498Y-128348180D01*
X119777463Y-128458494D01*
X119856815Y-128555185D01*
X119953506Y-128634537D01*
X120063820Y-128693502D01*
X120183518Y-128729812D01*
X120308000Y-128742072D01*
X122008000Y-128742072D01*
X122132482Y-128729812D01*
X122252180Y-128693502D01*
X122362494Y-128634537D01*
X122459185Y-128555185D01*
X122538537Y-128458494D01*
X122597502Y-128348180D01*
X122618393Y-128279313D01*
X122642866Y-128309134D01*
X122868986Y-128494706D01*
X123126966Y-128632599D01*
X123406889Y-128717513D01*
X123625050Y-128739000D01*
X123770950Y-128739000D01*
X123989111Y-128717513D01*
X124269034Y-128632599D01*
X124303000Y-128614444D01*
X124302999Y-131210199D01*
X115096224Y-140416974D01*
X115046250Y-140367000D01*
X113935000Y-140367000D01*
X113935000Y-140387000D01*
X113681000Y-140387000D01*
X113681000Y-140367000D01*
X112569750Y-140367000D01*
X112411000Y-140525750D01*
X112407928Y-141002000D01*
X112420188Y-141126482D01*
X112456498Y-141246180D01*
X112515463Y-141356494D01*
X112594815Y-141453185D01*
X112691506Y-141532537D01*
X112801820Y-141591502D01*
X112921518Y-141627812D01*
X113005465Y-141636080D01*
X112917465Y-141694880D01*
X112722880Y-141889465D01*
X112569995Y-142118273D01*
X112464686Y-142372510D01*
X112411000Y-142642408D01*
X112411000Y-142917592D01*
X112464686Y-143187490D01*
X112569995Y-143441727D01*
X112722880Y-143670535D01*
X112917465Y-143865120D01*
X113146273Y-144018005D01*
X113400510Y-144123314D01*
X113670408Y-144177000D01*
X113945592Y-144177000D01*
X114215490Y-144123314D01*
X114469727Y-144018005D01*
X114698535Y-143865120D01*
X114893120Y-143670535D01*
X115046005Y-143441727D01*
X115151314Y-143187490D01*
X115205000Y-142917592D01*
X115205000Y-142642408D01*
X115174372Y-142488429D01*
X122112801Y-135550000D01*
X131561928Y-135550000D01*
X131574188Y-135674482D01*
X131610498Y-135794180D01*
X131669463Y-135904494D01*
X131748815Y-136001185D01*
X131818044Y-136058000D01*
X131748815Y-136114815D01*
X131669463Y-136211506D01*
X131610498Y-136321820D01*
X131574188Y-136441518D01*
X131561928Y-136566000D01*
X131565000Y-137042250D01*
X131723750Y-137201000D01*
X132835000Y-137201000D01*
X132835000Y-136089750D01*
X132803250Y-136058000D01*
X132835000Y-136026250D01*
X132835000Y-134915000D01*
X133089000Y-134915000D01*
X133089000Y-136026250D01*
X133120750Y-136058000D01*
X133089000Y-136089750D01*
X133089000Y-137201000D01*
X134200250Y-137201000D01*
X134359000Y-137042250D01*
X134362072Y-136566000D01*
X134349812Y-136441518D01*
X134313502Y-136321820D01*
X134254537Y-136211506D01*
X134175185Y-136114815D01*
X134105956Y-136058000D01*
X134175185Y-136001185D01*
X134254537Y-135904494D01*
X134313502Y-135794180D01*
X134349812Y-135674482D01*
X134362072Y-135550000D01*
X134359000Y-135073750D01*
X134200250Y-134915000D01*
X133089000Y-134915000D01*
X132835000Y-134915000D01*
X131723750Y-134915000D01*
X131565000Y-135073750D01*
X131561928Y-135550000D01*
X122112801Y-135550000D01*
X125574003Y-132088799D01*
X125603000Y-132065002D01*
X125697973Y-131949277D01*
X125768545Y-131817248D01*
X125812002Y-131673987D01*
X125822999Y-131562334D01*
X125822999Y-131562325D01*
X125826675Y-131525002D01*
X125822999Y-131487679D01*
X125822999Y-128679931D01*
X125946889Y-128717513D01*
X126165050Y-128739000D01*
X126310950Y-128739000D01*
X126529111Y-128717513D01*
X126603996Y-128694797D01*
X130668201Y-132759003D01*
X130691999Y-132788001D01*
X130720997Y-132811799D01*
X130807724Y-132882974D01*
X130939753Y-132953546D01*
X131083014Y-132997003D01*
X131232000Y-133011677D01*
X131269333Y-133008000D01*
X131789659Y-133008000D01*
X131876880Y-133138535D01*
X132071465Y-133333120D01*
X132159465Y-133391920D01*
X132075518Y-133400188D01*
X131955820Y-133436498D01*
X131845506Y-133495463D01*
X131748815Y-133574815D01*
X131669463Y-133671506D01*
X131610498Y-133781820D01*
X131574188Y-133901518D01*
X131561928Y-134026000D01*
X131565000Y-134502250D01*
X131723750Y-134661000D01*
X132835000Y-134661000D01*
X132835000Y-134641000D01*
X133089000Y-134641000D01*
X133089000Y-134661000D01*
X134200250Y-134661000D01*
X134359000Y-134502250D01*
X134362072Y-134026000D01*
X134349812Y-133901518D01*
X134313502Y-133781820D01*
X134254537Y-133671506D01*
X134175185Y-133574815D01*
X134078494Y-133495463D01*
X133968180Y-133436498D01*
X133848482Y-133400188D01*
X133764535Y-133391920D01*
X133852535Y-133333120D01*
X134047120Y-133138535D01*
X134200005Y-132909727D01*
X134305314Y-132655490D01*
X134359000Y-132385592D01*
X134359000Y-132110408D01*
X134305314Y-131840510D01*
X134200005Y-131586273D01*
X134115299Y-131459502D01*
X139049570Y-126525231D01*
X138930654Y-126812321D01*
X138839000Y-127273098D01*
X138839000Y-127742902D01*
X138930654Y-128203679D01*
X139110440Y-128637721D01*
X139371450Y-129028349D01*
X139703651Y-129360550D01*
X140094279Y-129621560D01*
X140339000Y-129722927D01*
X140339001Y-131713420D01*
X134359511Y-137692911D01*
X134359000Y-137613750D01*
X134200250Y-137455000D01*
X133089000Y-137455000D01*
X133089000Y-137475000D01*
X132835000Y-137475000D01*
X132835000Y-137455000D01*
X131723750Y-137455000D01*
X131565000Y-137613750D01*
X131561928Y-138090000D01*
X131574188Y-138214482D01*
X131610498Y-138334180D01*
X131669463Y-138444494D01*
X131748815Y-138541185D01*
X131845506Y-138620537D01*
X131955820Y-138679502D01*
X132075518Y-138715812D01*
X132159465Y-138724080D01*
X132071465Y-138782880D01*
X131876880Y-138977465D01*
X131723995Y-139206273D01*
X131618686Y-139460510D01*
X131565000Y-139730408D01*
X131565000Y-140005592D01*
X131618686Y-140275490D01*
X131723995Y-140529727D01*
X131876880Y-140758535D01*
X132071465Y-140953120D01*
X132300273Y-141106005D01*
X132377515Y-141138000D01*
X132300273Y-141169995D01*
X132071465Y-141322880D01*
X131876880Y-141517465D01*
X131723995Y-141746273D01*
X131618686Y-142000510D01*
X131565000Y-142270408D01*
X131565000Y-142545592D01*
X131618686Y-142815490D01*
X131723995Y-143069727D01*
X131876880Y-143298535D01*
X132071465Y-143493120D01*
X132300273Y-143646005D01*
X132554510Y-143751314D01*
X132824408Y-143805000D01*
X133099592Y-143805000D01*
X133369490Y-143751314D01*
X133623727Y-143646005D01*
X133852535Y-143493120D01*
X134047120Y-143298535D01*
X134200005Y-143069727D01*
X134305314Y-142815490D01*
X134359000Y-142545592D01*
X134359000Y-142270408D01*
X134305314Y-142000510D01*
X134200005Y-141746273D01*
X134047120Y-141517465D01*
X133852535Y-141322880D01*
X133623727Y-141169995D01*
X133546485Y-141138000D01*
X133623727Y-141106005D01*
X133852535Y-140953120D01*
X134047120Y-140758535D01*
X134200005Y-140529727D01*
X134305314Y-140275490D01*
X134311578Y-140244000D01*
X141819049Y-132736530D01*
X141852817Y-132708817D01*
X141919976Y-132626985D01*
X141963410Y-132574060D01*
X141975728Y-132551015D01*
X142045589Y-132420313D01*
X142096195Y-132253490D01*
X142109000Y-132123477D01*
X142109000Y-132123467D01*
X142113281Y-132080001D01*
X142109000Y-132036535D01*
X142109000Y-129722927D01*
X142353721Y-129621560D01*
X142744349Y-129360550D01*
X143076550Y-129028349D01*
X143337560Y-128637721D01*
X143383311Y-128527268D01*
X143989000Y-128527268D01*
X143989000Y-128888732D01*
X144059518Y-129243250D01*
X144197844Y-129577199D01*
X144398662Y-129877744D01*
X144654256Y-130133338D01*
X144954801Y-130334156D01*
X145288750Y-130472482D01*
X145643268Y-130543000D01*
X146004732Y-130543000D01*
X146359250Y-130472482D01*
X146693199Y-130334156D01*
X146993744Y-130133338D01*
X147249338Y-129877744D01*
X147450156Y-129577199D01*
X147588482Y-129243250D01*
X147659000Y-128888732D01*
X147659000Y-128527268D01*
X147588482Y-128172750D01*
X147450156Y-127838801D01*
X147249338Y-127538256D01*
X146993744Y-127282662D01*
X146979431Y-127273098D01*
X148039000Y-127273098D01*
X148039000Y-127742902D01*
X148130654Y-128203679D01*
X148310440Y-128637721D01*
X148571450Y-129028349D01*
X148903651Y-129360550D01*
X149294279Y-129621560D01*
X149539000Y-129722927D01*
X149539001Y-147332521D01*
X149534719Y-147376000D01*
X149551805Y-147549490D01*
X149602412Y-147716313D01*
X149684590Y-147870059D01*
X149767468Y-147971046D01*
X149767471Y-147971049D01*
X149795184Y-148004817D01*
X149828951Y-148032530D01*
X153775470Y-151979049D01*
X153803183Y-152012817D01*
X153836951Y-152040530D01*
X153836953Y-152040532D01*
X153872514Y-152069716D01*
X153937941Y-152123411D01*
X154091687Y-152205589D01*
X154169541Y-152229206D01*
X154258509Y-152256195D01*
X154273306Y-152257652D01*
X154388523Y-152269000D01*
X154388531Y-152269000D01*
X154432000Y-152273281D01*
X154475469Y-152269000D01*
X168612531Y-152269000D01*
X168656000Y-152273281D01*
X168699469Y-152269000D01*
X168699477Y-152269000D01*
X168829490Y-152256195D01*
X168996313Y-152205589D01*
X169150059Y-152123411D01*
X169284817Y-152012817D01*
X169312534Y-151979044D01*
X173262967Y-148028612D01*
X173409050Y-148043000D01*
X173554950Y-148043000D01*
X173773111Y-148021513D01*
X174053034Y-147936599D01*
X174311014Y-147798706D01*
X174537134Y-147613134D01*
X174561607Y-147583313D01*
X174582498Y-147652180D01*
X174641463Y-147762494D01*
X174720815Y-147859185D01*
X174817506Y-147938537D01*
X174927820Y-147997502D01*
X175047518Y-148033812D01*
X175172000Y-148046072D01*
X175736250Y-148043000D01*
X175895000Y-147884250D01*
X175895000Y-146685000D01*
X176149000Y-146685000D01*
X176149000Y-147884250D01*
X176307750Y-148043000D01*
X176872000Y-148046072D01*
X176996482Y-148033812D01*
X177116180Y-147997502D01*
X177226494Y-147938537D01*
X177323185Y-147859185D01*
X177402537Y-147762494D01*
X177461502Y-147652180D01*
X177497812Y-147532482D01*
X177510072Y-147408000D01*
X177507000Y-146843750D01*
X177348250Y-146685000D01*
X176149000Y-146685000D01*
X175895000Y-146685000D01*
X175875000Y-146685000D01*
X175875000Y-146431000D01*
X175895000Y-146431000D01*
X175895000Y-145231750D01*
X176149000Y-145231750D01*
X176149000Y-146431000D01*
X177348250Y-146431000D01*
X177507000Y-146272250D01*
X177510072Y-145708000D01*
X177497812Y-145583518D01*
X177461502Y-145463820D01*
X177402537Y-145353506D01*
X177323185Y-145256815D01*
X177226494Y-145177463D01*
X177116180Y-145118498D01*
X176996482Y-145082188D01*
X176872000Y-145069928D01*
X176307750Y-145073000D01*
X176149000Y-145231750D01*
X175895000Y-145231750D01*
X175736250Y-145073000D01*
X175172000Y-145069928D01*
X175047518Y-145082188D01*
X174927820Y-145118498D01*
X174817506Y-145177463D01*
X174720815Y-145256815D01*
X174641463Y-145353506D01*
X174582498Y-145463820D01*
X174561607Y-145532687D01*
X174537134Y-145502866D01*
X174311014Y-145317294D01*
X174053034Y-145179401D01*
X173773111Y-145094487D01*
X173554950Y-145073000D01*
X173409050Y-145073000D01*
X173190889Y-145094487D01*
X172910966Y-145179401D01*
X172652986Y-145317294D01*
X172426866Y-145502866D01*
X172241294Y-145728986D01*
X172103401Y-145986966D01*
X172018487Y-146266889D01*
X171989815Y-146558000D01*
X172011388Y-146777033D01*
X168289422Y-150499000D01*
X154798579Y-150499000D01*
X151309000Y-147009422D01*
X151309000Y-138584408D01*
X156513000Y-138584408D01*
X156513000Y-138859592D01*
X156566686Y-139129490D01*
X156671995Y-139383727D01*
X156824880Y-139612535D01*
X157019465Y-139807120D01*
X157248273Y-139960005D01*
X157325515Y-139992000D01*
X157248273Y-140023995D01*
X157019465Y-140176880D01*
X156824880Y-140371465D01*
X156671995Y-140600273D01*
X156566686Y-140854510D01*
X156513000Y-141124408D01*
X156513000Y-141399592D01*
X156566686Y-141669490D01*
X156671995Y-141923727D01*
X156824880Y-142152535D01*
X157019465Y-142347120D01*
X157248273Y-142500005D01*
X157325515Y-142532000D01*
X157248273Y-142563995D01*
X157019465Y-142716880D01*
X156824880Y-142911465D01*
X156671995Y-143140273D01*
X156566686Y-143394510D01*
X156513000Y-143664408D01*
X156513000Y-143939592D01*
X156566686Y-144209490D01*
X156671995Y-144463727D01*
X156824880Y-144692535D01*
X157019465Y-144887120D01*
X157248273Y-145040005D01*
X157325515Y-145072000D01*
X157248273Y-145103995D01*
X157019465Y-145256880D01*
X156824880Y-145451465D01*
X156671995Y-145680273D01*
X156566686Y-145934510D01*
X156513000Y-146204408D01*
X156513000Y-146479592D01*
X156566686Y-146749490D01*
X156671995Y-147003727D01*
X156824880Y-147232535D01*
X157019465Y-147427120D01*
X157248273Y-147580005D01*
X157502510Y-147685314D01*
X157772408Y-147739000D01*
X158047592Y-147739000D01*
X158317490Y-147685314D01*
X158571727Y-147580005D01*
X158800535Y-147427120D01*
X158995120Y-147232535D01*
X159148005Y-147003727D01*
X159253314Y-146749490D01*
X159307000Y-146479592D01*
X159307000Y-146204408D01*
X159253314Y-145934510D01*
X159148005Y-145680273D01*
X158995120Y-145451465D01*
X158800535Y-145256880D01*
X158571727Y-145103995D01*
X158494485Y-145072000D01*
X158571727Y-145040005D01*
X158800535Y-144887120D01*
X158995120Y-144692535D01*
X159148005Y-144463727D01*
X159253314Y-144209490D01*
X159307000Y-143939592D01*
X159307000Y-143664408D01*
X159253314Y-143394510D01*
X159148005Y-143140273D01*
X158995120Y-142911465D01*
X158800535Y-142716880D01*
X158571727Y-142563995D01*
X158494485Y-142532000D01*
X158571727Y-142500005D01*
X158800535Y-142347120D01*
X158995120Y-142152535D01*
X159148005Y-141923727D01*
X159253314Y-141669490D01*
X159307000Y-141399592D01*
X159307000Y-141124408D01*
X159253314Y-140854510D01*
X159148005Y-140600273D01*
X158995120Y-140371465D01*
X158800535Y-140176880D01*
X158571727Y-140023995D01*
X158494485Y-139992000D01*
X158571727Y-139960005D01*
X158800535Y-139807120D01*
X158995120Y-139612535D01*
X159148005Y-139383727D01*
X159253314Y-139129490D01*
X159307000Y-138859592D01*
X159307000Y-138584408D01*
X159253314Y-138314510D01*
X159148005Y-138060273D01*
X158995120Y-137831465D01*
X158800535Y-137636880D01*
X158571727Y-137483995D01*
X158500057Y-137454308D01*
X158513023Y-137449636D01*
X158628980Y-137387656D01*
X158695960Y-137147565D01*
X157910000Y-136361605D01*
X157124040Y-137147565D01*
X157191020Y-137387656D01*
X157326760Y-137451485D01*
X157248273Y-137483995D01*
X157019465Y-137636880D01*
X156824880Y-137831465D01*
X156671995Y-138060273D01*
X156566686Y-138314510D01*
X156513000Y-138584408D01*
X151309000Y-138584408D01*
X151309000Y-136254017D01*
X156508090Y-136254017D01*
X156549078Y-136526133D01*
X156642364Y-136785023D01*
X156704344Y-136900980D01*
X156944435Y-136967960D01*
X157730395Y-136182000D01*
X158089605Y-136182000D01*
X158875565Y-136967960D01*
X159115656Y-136900980D01*
X159232756Y-136651952D01*
X159299023Y-136384865D01*
X159311910Y-136109983D01*
X159270922Y-135837867D01*
X159177636Y-135578977D01*
X159115656Y-135463020D01*
X158875565Y-135396040D01*
X158089605Y-136182000D01*
X157730395Y-136182000D01*
X156944435Y-135396040D01*
X156704344Y-135463020D01*
X156587244Y-135712048D01*
X156520977Y-135979135D01*
X156508090Y-136254017D01*
X151309000Y-136254017D01*
X151309000Y-135216435D01*
X157124040Y-135216435D01*
X157910000Y-136002395D01*
X158695960Y-135216435D01*
X158628980Y-134976344D01*
X158379952Y-134859244D01*
X158112865Y-134792977D01*
X157837983Y-134780090D01*
X157565867Y-134821078D01*
X157306977Y-134914364D01*
X157191020Y-134976344D01*
X157124040Y-135216435D01*
X151309000Y-135216435D01*
X151309000Y-129722927D01*
X151553721Y-129621560D01*
X151944349Y-129360550D01*
X152276550Y-129028349D01*
X152537560Y-128637721D01*
X152717346Y-128203679D01*
X152809000Y-127742902D01*
X152809000Y-127273098D01*
X152717346Y-126812321D01*
X152537560Y-126378279D01*
X152276550Y-125987651D01*
X151944349Y-125655450D01*
X151553721Y-125394440D01*
X151119679Y-125214654D01*
X150658902Y-125123000D01*
X150189098Y-125123000D01*
X149728321Y-125214654D01*
X149294279Y-125394440D01*
X148903651Y-125655450D01*
X148571450Y-125987651D01*
X148310440Y-126378279D01*
X148130654Y-126812321D01*
X148039000Y-127273098D01*
X146979431Y-127273098D01*
X146693199Y-127081844D01*
X146359250Y-126943518D01*
X146004732Y-126873000D01*
X145643268Y-126873000D01*
X145288750Y-126943518D01*
X144954801Y-127081844D01*
X144654256Y-127282662D01*
X144398662Y-127538256D01*
X144197844Y-127838801D01*
X144059518Y-128172750D01*
X143989000Y-128527268D01*
X143383311Y-128527268D01*
X143517346Y-128203679D01*
X143609000Y-127742902D01*
X143609000Y-127273098D01*
X143517346Y-126812321D01*
X143337560Y-126378279D01*
X143076550Y-125987651D01*
X142744349Y-125655450D01*
X142353721Y-125394440D01*
X142270575Y-125360000D01*
X144374678Y-125360000D01*
X144412000Y-125363676D01*
X144449322Y-125360000D01*
X144449333Y-125360000D01*
X144560986Y-125349003D01*
X144704247Y-125305546D01*
X144836276Y-125234974D01*
X144952001Y-125140001D01*
X144975804Y-125110997D01*
X146198430Y-123888372D01*
X146352408Y-123919000D01*
X146627592Y-123919000D01*
X146897490Y-123865314D01*
X147151727Y-123760005D01*
X147380535Y-123607120D01*
X147575120Y-123412535D01*
X147728005Y-123183727D01*
X147833314Y-122929490D01*
X147887000Y-122659592D01*
X147887000Y-122384408D01*
X147833314Y-122114510D01*
X147816704Y-122074408D01*
X156767000Y-122074408D01*
X156767000Y-122349592D01*
X156820686Y-122619490D01*
X156925995Y-122873727D01*
X157078880Y-123102535D01*
X157273465Y-123297120D01*
X157502273Y-123450005D01*
X157579515Y-123482000D01*
X157502273Y-123513995D01*
X157273465Y-123666880D01*
X157078880Y-123861465D01*
X156925995Y-124090273D01*
X156820686Y-124344510D01*
X156767000Y-124614408D01*
X156767000Y-124889592D01*
X156820686Y-125159490D01*
X156925995Y-125413727D01*
X157078880Y-125642535D01*
X157273465Y-125837120D01*
X157502273Y-125990005D01*
X157579515Y-126022000D01*
X157502273Y-126053995D01*
X157273465Y-126206880D01*
X157078880Y-126401465D01*
X156925995Y-126630273D01*
X156820686Y-126884510D01*
X156767000Y-127154408D01*
X156767000Y-127429592D01*
X156820686Y-127699490D01*
X156925995Y-127953727D01*
X157078880Y-128182535D01*
X157273465Y-128377120D01*
X157502273Y-128530005D01*
X157579515Y-128562000D01*
X157502273Y-128593995D01*
X157273465Y-128746880D01*
X157078880Y-128941465D01*
X156925995Y-129170273D01*
X156820686Y-129424510D01*
X156767000Y-129694408D01*
X156767000Y-129969592D01*
X156820686Y-130239490D01*
X156925995Y-130493727D01*
X157078880Y-130722535D01*
X157273465Y-130917120D01*
X157502273Y-131070005D01*
X157756510Y-131175314D01*
X158026408Y-131229000D01*
X158301592Y-131229000D01*
X158571490Y-131175314D01*
X158825727Y-131070005D01*
X159054535Y-130917120D01*
X159249120Y-130722535D01*
X159402005Y-130493727D01*
X159507314Y-130239490D01*
X159561000Y-129969592D01*
X159561000Y-129694408D01*
X159507314Y-129424510D01*
X159402005Y-129170273D01*
X159249120Y-128941465D01*
X159054535Y-128746880D01*
X158825727Y-128593995D01*
X158748485Y-128562000D01*
X158825727Y-128530005D01*
X159054535Y-128377120D01*
X159249120Y-128182535D01*
X159402005Y-127953727D01*
X159507314Y-127699490D01*
X159561000Y-127429592D01*
X159561000Y-127154408D01*
X159507314Y-126884510D01*
X159402005Y-126630273D01*
X159249120Y-126401465D01*
X159054535Y-126206880D01*
X158825727Y-126053995D01*
X158748485Y-126022000D01*
X158825727Y-125990005D01*
X159054535Y-125837120D01*
X159249120Y-125642535D01*
X159402005Y-125413727D01*
X159507314Y-125159490D01*
X159561000Y-124889592D01*
X159561000Y-124614408D01*
X159507314Y-124344510D01*
X159402005Y-124090273D01*
X159249120Y-123861465D01*
X159054535Y-123666880D01*
X158825727Y-123513995D01*
X158748485Y-123482000D01*
X158825727Y-123450005D01*
X159054535Y-123297120D01*
X159249120Y-123102535D01*
X159402005Y-122873727D01*
X159507314Y-122619490D01*
X159561000Y-122349592D01*
X159561000Y-122074408D01*
X159507314Y-121804510D01*
X159402005Y-121550273D01*
X159249120Y-121321465D01*
X159054535Y-121126880D01*
X158825727Y-120973995D01*
X158754057Y-120944308D01*
X158767023Y-120939636D01*
X158882980Y-120877656D01*
X158949960Y-120637565D01*
X158164000Y-119851605D01*
X157378040Y-120637565D01*
X157445020Y-120877656D01*
X157580760Y-120941485D01*
X157502273Y-120973995D01*
X157273465Y-121126880D01*
X157078880Y-121321465D01*
X156925995Y-121550273D01*
X156820686Y-121804510D01*
X156767000Y-122074408D01*
X147816704Y-122074408D01*
X147728005Y-121860273D01*
X147575120Y-121631465D01*
X147380535Y-121436880D01*
X147151727Y-121283995D01*
X146897490Y-121178686D01*
X146627592Y-121125000D01*
X146352408Y-121125000D01*
X146082510Y-121178686D01*
X145828273Y-121283995D01*
X145599465Y-121436880D01*
X145404880Y-121631465D01*
X145251995Y-121860273D01*
X145222308Y-121931943D01*
X145217636Y-121918977D01*
X145155656Y-121803020D01*
X144915565Y-121736040D01*
X144129605Y-122522000D01*
X144143748Y-122536143D01*
X143964143Y-122715748D01*
X143950000Y-122701605D01*
X143164040Y-123487565D01*
X143231020Y-123727656D01*
X143469934Y-123840000D01*
X141878603Y-123840000D01*
X142071727Y-123760005D01*
X142300535Y-123607120D01*
X142495120Y-123412535D01*
X142648005Y-123183727D01*
X142677692Y-123112057D01*
X142682364Y-123125023D01*
X142744344Y-123240980D01*
X142984435Y-123307960D01*
X143770395Y-122522000D01*
X142984435Y-121736040D01*
X142744344Y-121803020D01*
X142680515Y-121938760D01*
X142648005Y-121860273D01*
X142495120Y-121631465D01*
X142420090Y-121556435D01*
X143164040Y-121556435D01*
X143950000Y-122342395D01*
X144735960Y-121556435D01*
X144668980Y-121316344D01*
X144419952Y-121199244D01*
X144152865Y-121132977D01*
X143877983Y-121120090D01*
X143605867Y-121161078D01*
X143346977Y-121254364D01*
X143231020Y-121316344D01*
X143164040Y-121556435D01*
X142420090Y-121556435D01*
X142300535Y-121436880D01*
X142071727Y-121283995D01*
X141817490Y-121178686D01*
X141547592Y-121125000D01*
X141272408Y-121125000D01*
X141002510Y-121178686D01*
X140748273Y-121283995D01*
X140519465Y-121436880D01*
X140324880Y-121631465D01*
X140171995Y-121860273D01*
X140140000Y-121937515D01*
X140108005Y-121860273D01*
X139955120Y-121631465D01*
X139760535Y-121436880D01*
X139531727Y-121283995D01*
X139277490Y-121178686D01*
X139007592Y-121125000D01*
X138732408Y-121125000D01*
X138462510Y-121178686D01*
X138208273Y-121283995D01*
X137979465Y-121436880D01*
X137784880Y-121631465D01*
X137631995Y-121860273D01*
X137600000Y-121937515D01*
X137568005Y-121860273D01*
X137415120Y-121631465D01*
X137220535Y-121436880D01*
X137090000Y-121349659D01*
X137090000Y-121286801D01*
X138632784Y-119744017D01*
X156762090Y-119744017D01*
X156803078Y-120016133D01*
X156896364Y-120275023D01*
X156958344Y-120390980D01*
X157198435Y-120457960D01*
X157984395Y-119672000D01*
X158343605Y-119672000D01*
X159129565Y-120457960D01*
X159369656Y-120390980D01*
X159486756Y-120141952D01*
X159553023Y-119874865D01*
X159565910Y-119599983D01*
X159524922Y-119327867D01*
X159431636Y-119068977D01*
X159369656Y-118953020D01*
X159129565Y-118886040D01*
X158343605Y-119672000D01*
X157984395Y-119672000D01*
X157198435Y-118886040D01*
X156958344Y-118953020D01*
X156841244Y-119202048D01*
X156774977Y-119469135D01*
X156762090Y-119744017D01*
X138632784Y-119744017D01*
X139670366Y-118706435D01*
X157378040Y-118706435D01*
X158164000Y-119492395D01*
X158949960Y-118706435D01*
X158882980Y-118466344D01*
X158633952Y-118349244D01*
X158366865Y-118282977D01*
X158091983Y-118270090D01*
X157819867Y-118311078D01*
X157560977Y-118404364D01*
X157445020Y-118466344D01*
X157378040Y-118706435D01*
X139670366Y-118706435D01*
X144466803Y-113910000D01*
X156785199Y-113910000D01*
X157410393Y-114535195D01*
X157408541Y-114554000D01*
X157434317Y-114815706D01*
X157510653Y-115067354D01*
X157634618Y-115299275D01*
X157801445Y-115502555D01*
X158004725Y-115669382D01*
X158236646Y-115793347D01*
X158488294Y-115869683D01*
X158684421Y-115889000D01*
X158815579Y-115889000D01*
X158992749Y-115871550D01*
X161240001Y-118118803D01*
X161240000Y-131537048D01*
X161236324Y-131574370D01*
X161240000Y-131611692D01*
X161240000Y-131611702D01*
X161250997Y-131723355D01*
X161286535Y-131840510D01*
X161294454Y-131866616D01*
X161365026Y-131998646D01*
X161395685Y-132036004D01*
X161459999Y-132114371D01*
X161489003Y-132138174D01*
X164543587Y-135192758D01*
X164444880Y-135291465D01*
X164291995Y-135520273D01*
X164186686Y-135774510D01*
X164133000Y-136044408D01*
X164133000Y-136319592D01*
X164186686Y-136589490D01*
X164291995Y-136843727D01*
X164444880Y-137072535D01*
X164639465Y-137267120D01*
X164868273Y-137420005D01*
X164945515Y-137452000D01*
X164868273Y-137483995D01*
X164639465Y-137636880D01*
X164444880Y-137831465D01*
X164291995Y-138060273D01*
X164186686Y-138314510D01*
X164133000Y-138584408D01*
X164133000Y-138859592D01*
X164186686Y-139129490D01*
X164291995Y-139383727D01*
X164444880Y-139612535D01*
X164639465Y-139807120D01*
X164868273Y-139960005D01*
X164945515Y-139992000D01*
X164868273Y-140023995D01*
X164639465Y-140176880D01*
X164444880Y-140371465D01*
X164291995Y-140600273D01*
X164186686Y-140854510D01*
X164133000Y-141124408D01*
X164133000Y-141399592D01*
X164186686Y-141669490D01*
X164291995Y-141923727D01*
X164444880Y-142152535D01*
X164639465Y-142347120D01*
X164868273Y-142500005D01*
X164945515Y-142532000D01*
X164868273Y-142563995D01*
X164639465Y-142716880D01*
X164444880Y-142911465D01*
X164291995Y-143140273D01*
X164186686Y-143394510D01*
X164133000Y-143664408D01*
X164133000Y-143939592D01*
X164186686Y-144209490D01*
X164291995Y-144463727D01*
X164444880Y-144692535D01*
X164639465Y-144887120D01*
X164868273Y-145040005D01*
X164945515Y-145072000D01*
X164868273Y-145103995D01*
X164639465Y-145256880D01*
X164444880Y-145451465D01*
X164291995Y-145680273D01*
X164186686Y-145934510D01*
X164133000Y-146204408D01*
X164133000Y-146479592D01*
X164186686Y-146749490D01*
X164291995Y-147003727D01*
X164444880Y-147232535D01*
X164639465Y-147427120D01*
X164868273Y-147580005D01*
X165122510Y-147685314D01*
X165392408Y-147739000D01*
X165667592Y-147739000D01*
X165937490Y-147685314D01*
X166191727Y-147580005D01*
X166420535Y-147427120D01*
X166615120Y-147232535D01*
X166768005Y-147003727D01*
X166873314Y-146749490D01*
X166927000Y-146479592D01*
X166927000Y-146204408D01*
X166873314Y-145934510D01*
X166768005Y-145680273D01*
X166615120Y-145451465D01*
X166420535Y-145256880D01*
X166191727Y-145103995D01*
X166114485Y-145072000D01*
X166191727Y-145040005D01*
X166420535Y-144887120D01*
X166615120Y-144692535D01*
X166768005Y-144463727D01*
X166873314Y-144209490D01*
X166927000Y-143939592D01*
X166927000Y-143664408D01*
X166896372Y-143510430D01*
X167914802Y-142492000D01*
X171666678Y-142492000D01*
X171704000Y-142495676D01*
X171741322Y-142492000D01*
X171741333Y-142492000D01*
X171852986Y-142481003D01*
X171996247Y-142437546D01*
X172128276Y-142366974D01*
X172244001Y-142272001D01*
X172267804Y-142242997D01*
X172894801Y-141616000D01*
X179817928Y-141616000D01*
X179830188Y-141740482D01*
X179866498Y-141860180D01*
X179925463Y-141970494D01*
X180004815Y-142067185D01*
X180101506Y-142146537D01*
X180211820Y-142205502D01*
X180331518Y-142241812D01*
X180456000Y-142254072D01*
X181070250Y-142251000D01*
X181229000Y-142092250D01*
X181229000Y-140843000D01*
X181483000Y-140843000D01*
X181483000Y-142092250D01*
X181641750Y-142251000D01*
X182256000Y-142254072D01*
X182380482Y-142241812D01*
X182500180Y-142205502D01*
X182610494Y-142146537D01*
X182707185Y-142067185D01*
X182786537Y-141970494D01*
X182845502Y-141860180D01*
X182881812Y-141740482D01*
X182894072Y-141616000D01*
X182891000Y-141001750D01*
X182732250Y-140843000D01*
X181483000Y-140843000D01*
X181229000Y-140843000D01*
X179979750Y-140843000D01*
X179821000Y-141001750D01*
X179817928Y-141616000D01*
X172894801Y-141616000D01*
X173624005Y-140886797D01*
X173698889Y-140909513D01*
X173917050Y-140931000D01*
X174062950Y-140931000D01*
X174281111Y-140909513D01*
X174561034Y-140824599D01*
X174819014Y-140686706D01*
X175045134Y-140501134D01*
X175069607Y-140471313D01*
X175090498Y-140540180D01*
X175149463Y-140650494D01*
X175228815Y-140747185D01*
X175325506Y-140826537D01*
X175435820Y-140885502D01*
X175555518Y-140921812D01*
X175680000Y-140934072D01*
X177380000Y-140934072D01*
X177504482Y-140921812D01*
X177624180Y-140885502D01*
X177734494Y-140826537D01*
X177831185Y-140747185D01*
X177910537Y-140650494D01*
X177969502Y-140540180D01*
X178005812Y-140420482D01*
X178018072Y-140296000D01*
X178018072Y-138596000D01*
X178005812Y-138471518D01*
X177969502Y-138351820D01*
X177910537Y-138241506D01*
X177831185Y-138144815D01*
X177734494Y-138065463D01*
X177624180Y-138006498D01*
X177504482Y-137970188D01*
X177380000Y-137957928D01*
X176116729Y-137957928D01*
X175823804Y-137665003D01*
X175800001Y-137635999D01*
X175684276Y-137541026D01*
X175552247Y-137470454D01*
X175408986Y-137426997D01*
X175297333Y-137416000D01*
X175297322Y-137416000D01*
X175260000Y-137412324D01*
X175222678Y-137416000D01*
X173284821Y-137416000D01*
X173247498Y-137412324D01*
X173210175Y-137416000D01*
X173210166Y-137416000D01*
X173098513Y-137426997D01*
X172955252Y-137470454D01*
X172823223Y-137541026D01*
X172707498Y-137635999D01*
X172683700Y-137664997D01*
X172209002Y-138139696D01*
X172188211Y-138156759D01*
X172021034Y-138067401D01*
X171741111Y-137982487D01*
X171522950Y-137961000D01*
X171377050Y-137961000D01*
X171158889Y-137982487D01*
X170878966Y-138067401D01*
X170620986Y-138205294D01*
X170394866Y-138390866D01*
X170209294Y-138616986D01*
X170172405Y-138686000D01*
X166927000Y-138686000D01*
X166927000Y-138584408D01*
X166873314Y-138314510D01*
X166768005Y-138060273D01*
X166615120Y-137831465D01*
X166420535Y-137636880D01*
X166191727Y-137483995D01*
X166114485Y-137452000D01*
X166191727Y-137420005D01*
X166420535Y-137267120D01*
X166615120Y-137072535D01*
X166768005Y-136843727D01*
X166873314Y-136589490D01*
X166927000Y-136319592D01*
X166927000Y-136044408D01*
X166873314Y-135774510D01*
X166768005Y-135520273D01*
X166615120Y-135291465D01*
X166420535Y-135096880D01*
X166283951Y-135005617D01*
X166279003Y-134955384D01*
X166235546Y-134812123D01*
X166225312Y-134792977D01*
X166164974Y-134680093D01*
X166093799Y-134593367D01*
X166070001Y-134564369D01*
X166041003Y-134540571D01*
X162760000Y-131259569D01*
X162760000Y-117841322D01*
X162763676Y-117803999D01*
X162760000Y-117766676D01*
X162760000Y-117766667D01*
X162755208Y-117718009D01*
X164417628Y-119380430D01*
X164387000Y-119534408D01*
X164387000Y-119809592D01*
X164440686Y-120079490D01*
X164545995Y-120333727D01*
X164698880Y-120562535D01*
X164893465Y-120757120D01*
X165122273Y-120910005D01*
X165199515Y-120942000D01*
X165122273Y-120973995D01*
X164893465Y-121126880D01*
X164698880Y-121321465D01*
X164545995Y-121550273D01*
X164440686Y-121804510D01*
X164387000Y-122074408D01*
X164387000Y-122349592D01*
X164417628Y-122503570D01*
X163488998Y-123432201D01*
X163460000Y-123455999D01*
X163436202Y-123484997D01*
X163436201Y-123484998D01*
X163365026Y-123571724D01*
X163294454Y-123703754D01*
X163250998Y-123847015D01*
X163236324Y-123996000D01*
X163240001Y-124033332D01*
X163240000Y-127386677D01*
X163236324Y-127424000D01*
X163240000Y-127461322D01*
X163240000Y-127461332D01*
X163250997Y-127572985D01*
X163268376Y-127630276D01*
X163294454Y-127716246D01*
X163365026Y-127848276D01*
X163395372Y-127885252D01*
X163459999Y-127964001D01*
X163489002Y-127987804D01*
X164536200Y-129035002D01*
X164559999Y-129064001D01*
X164588997Y-129087799D01*
X164596815Y-129094215D01*
X164545995Y-129170273D01*
X164440686Y-129424510D01*
X164387000Y-129694408D01*
X164387000Y-129969592D01*
X164440686Y-130239490D01*
X164545995Y-130493727D01*
X164698880Y-130722535D01*
X164893465Y-130917120D01*
X165122273Y-131070005D01*
X165376510Y-131175314D01*
X165646408Y-131229000D01*
X165921592Y-131229000D01*
X166191490Y-131175314D01*
X166445727Y-131070005D01*
X166674535Y-130917120D01*
X166869120Y-130722535D01*
X167022005Y-130493727D01*
X167127314Y-130239490D01*
X167181000Y-129969592D01*
X167181000Y-129694408D01*
X167134168Y-129458970D01*
X170042253Y-132367055D01*
X169986487Y-132550889D01*
X169957815Y-132842000D01*
X169986487Y-133133111D01*
X170071401Y-133413034D01*
X170209294Y-133671014D01*
X170394866Y-133897134D01*
X170620986Y-134082706D01*
X170878966Y-134220599D01*
X171158889Y-134305513D01*
X171377050Y-134327000D01*
X171522950Y-134327000D01*
X171741111Y-134305513D01*
X172021034Y-134220599D01*
X172279014Y-134082706D01*
X172505134Y-133897134D01*
X172690706Y-133671014D01*
X172720000Y-133616209D01*
X172749294Y-133671014D01*
X172934866Y-133897134D01*
X173160986Y-134082706D01*
X173418966Y-134220599D01*
X173698889Y-134305513D01*
X173917050Y-134327000D01*
X174062950Y-134327000D01*
X174281111Y-134305513D01*
X174561034Y-134220599D01*
X174819014Y-134082706D01*
X175045134Y-133897134D01*
X175069607Y-133867313D01*
X175090498Y-133936180D01*
X175149463Y-134046494D01*
X175228815Y-134143185D01*
X175325506Y-134222537D01*
X175435820Y-134281502D01*
X175555518Y-134317812D01*
X175680000Y-134330072D01*
X177380000Y-134330072D01*
X177504482Y-134317812D01*
X177624180Y-134281502D01*
X177734494Y-134222537D01*
X177831185Y-134143185D01*
X177910537Y-134046494D01*
X177969502Y-133936180D01*
X178005812Y-133816482D01*
X178018072Y-133692000D01*
X178018072Y-131992874D01*
X178818000Y-132792802D01*
X178818001Y-136360668D01*
X178814324Y-136398000D01*
X178828998Y-136546985D01*
X178872454Y-136690246D01*
X178943026Y-136822276D01*
X179014201Y-136909002D01*
X179038000Y-136938001D01*
X179066998Y-136961799D01*
X179872269Y-137767070D01*
X179821000Y-138024816D01*
X179821000Y-138327184D01*
X179879989Y-138623743D01*
X179995701Y-138903095D01*
X180163688Y-139154505D01*
X180230127Y-139220944D01*
X180211820Y-139226498D01*
X180101506Y-139285463D01*
X180004815Y-139364815D01*
X179925463Y-139461506D01*
X179866498Y-139571820D01*
X179830188Y-139691518D01*
X179817928Y-139816000D01*
X179821000Y-140430250D01*
X179979750Y-140589000D01*
X181229000Y-140589000D01*
X181229000Y-140569000D01*
X181483000Y-140569000D01*
X181483000Y-140589000D01*
X182732250Y-140589000D01*
X182891000Y-140430250D01*
X182894072Y-139816000D01*
X182881812Y-139691518D01*
X182845502Y-139571820D01*
X182786537Y-139461506D01*
X182707185Y-139364815D01*
X182610494Y-139285463D01*
X182500180Y-139226498D01*
X182481873Y-139220944D01*
X182548312Y-139154505D01*
X182716299Y-138903095D01*
X182832011Y-138623743D01*
X182891000Y-138327184D01*
X182891000Y-138024816D01*
X182832011Y-137728257D01*
X182716299Y-137448905D01*
X182548312Y-137197495D01*
X182334505Y-136983688D01*
X182083095Y-136815701D01*
X181803743Y-136699989D01*
X181507184Y-136641000D01*
X181204816Y-136641000D01*
X180947070Y-136692269D01*
X180338000Y-136083199D01*
X180338000Y-135384450D01*
X180456000Y-135396072D01*
X181070250Y-135393000D01*
X181229000Y-135234250D01*
X181229000Y-133985000D01*
X181483000Y-133985000D01*
X181483000Y-135234250D01*
X181641750Y-135393000D01*
X182256000Y-135396072D01*
X182380482Y-135383812D01*
X182500180Y-135347502D01*
X182610494Y-135288537D01*
X182707185Y-135209185D01*
X182786537Y-135112494D01*
X182845502Y-135002180D01*
X182881812Y-134882482D01*
X182894072Y-134758000D01*
X182891000Y-134143750D01*
X182732250Y-133985000D01*
X181483000Y-133985000D01*
X181229000Y-133985000D01*
X181209000Y-133985000D01*
X181209000Y-133731000D01*
X181229000Y-133731000D01*
X181229000Y-133711000D01*
X181483000Y-133711000D01*
X181483000Y-133731000D01*
X182732250Y-133731000D01*
X182891000Y-133572250D01*
X182894072Y-132958000D01*
X182881812Y-132833518D01*
X182845502Y-132713820D01*
X182786537Y-132603506D01*
X182707185Y-132506815D01*
X182610494Y-132427463D01*
X182500180Y-132368498D01*
X182481873Y-132362944D01*
X182548312Y-132296505D01*
X182716299Y-132045095D01*
X182832011Y-131765743D01*
X182891000Y-131469184D01*
X182891000Y-131166816D01*
X182832011Y-130870257D01*
X182716299Y-130590905D01*
X182548312Y-130339495D01*
X182334505Y-130125688D01*
X182083095Y-129957701D01*
X181803743Y-129841989D01*
X181507184Y-129783000D01*
X181204816Y-129783000D01*
X180947070Y-129834269D01*
X180329793Y-129216992D01*
X180305991Y-129187989D01*
X180190266Y-129093016D01*
X180058237Y-129022444D01*
X179914976Y-128978987D01*
X179803323Y-128967990D01*
X179803312Y-128967990D01*
X179765990Y-128964314D01*
X179728668Y-128967990D01*
X173542793Y-128967990D01*
X168910000Y-124335199D01*
X168910000Y-115355333D01*
X168913677Y-115318000D01*
X168899003Y-115169014D01*
X168855546Y-115025753D01*
X168784974Y-114893724D01*
X168713799Y-114806997D01*
X168690001Y-114777999D01*
X168661004Y-114754202D01*
X165143645Y-111236844D01*
X165165000Y-111129486D01*
X165165000Y-110866514D01*
X165113696Y-110608595D01*
X165013061Y-110365641D01*
X164866962Y-110146987D01*
X164681013Y-109961038D01*
X164462359Y-109814939D01*
X164219405Y-109714304D01*
X163961486Y-109663000D01*
X163698514Y-109663000D01*
X163440595Y-109714304D01*
X163197641Y-109814939D01*
X162978987Y-109961038D01*
X162793038Y-110146987D01*
X162646939Y-110365641D01*
X162546304Y-110608595D01*
X162495000Y-110866514D01*
X162495000Y-111129486D01*
X162546304Y-111387405D01*
X162646939Y-111630359D01*
X162793038Y-111849013D01*
X162978987Y-112034962D01*
X163197641Y-112181061D01*
X163440595Y-112281696D01*
X163698514Y-112333000D01*
X163961486Y-112333000D01*
X164068844Y-112311645D01*
X165551198Y-113794000D01*
X164927775Y-113794000D01*
X164866962Y-113702987D01*
X164681013Y-113517038D01*
X164462359Y-113370939D01*
X164219405Y-113270304D01*
X163961486Y-113219000D01*
X163698514Y-113219000D01*
X163440595Y-113270304D01*
X163197641Y-113370939D01*
X162978987Y-113517038D01*
X162793038Y-113702987D01*
X162646939Y-113921641D01*
X162546304Y-114164595D01*
X162495000Y-114422514D01*
X162495000Y-114685486D01*
X162546304Y-114943405D01*
X162646939Y-115186359D01*
X162793038Y-115405013D01*
X162978987Y-115590962D01*
X163197641Y-115737061D01*
X163440595Y-115837696D01*
X163698514Y-115889000D01*
X163961486Y-115889000D01*
X164219405Y-115837696D01*
X164462359Y-115737061D01*
X164681013Y-115590962D01*
X164866962Y-115405013D01*
X164927775Y-115314000D01*
X166309199Y-115314000D01*
X166940000Y-115944802D01*
X166940000Y-118887545D01*
X166869120Y-118781465D01*
X166674535Y-118586880D01*
X166445727Y-118433995D01*
X166191490Y-118328686D01*
X165921592Y-118275000D01*
X165646408Y-118275000D01*
X165492430Y-118305628D01*
X159510000Y-112323199D01*
X159510000Y-112101298D01*
X159698555Y-111946555D01*
X159865382Y-111743275D01*
X159989347Y-111511354D01*
X160065683Y-111259706D01*
X160091459Y-110998000D01*
X160065683Y-110736294D01*
X159989347Y-110484646D01*
X159865382Y-110252725D01*
X159698555Y-110049445D01*
X159495275Y-109882618D01*
X159263354Y-109758653D01*
X159011706Y-109682317D01*
X158815579Y-109663000D01*
X158684421Y-109663000D01*
X158488294Y-109682317D01*
X158236646Y-109758653D01*
X158004725Y-109882618D01*
X157801445Y-110049445D01*
X157634618Y-110252725D01*
X157510653Y-110484646D01*
X157434317Y-110736294D01*
X157408541Y-110998000D01*
X157432450Y-111240749D01*
X156783199Y-111890000D01*
X143699322Y-111890000D01*
X143661999Y-111886324D01*
X143624676Y-111890000D01*
X143624667Y-111890000D01*
X143513014Y-111900997D01*
X143369753Y-111944454D01*
X143237724Y-112015026D01*
X143121999Y-112109999D01*
X143098201Y-112138997D01*
X134081571Y-121155628D01*
X133927592Y-121125000D01*
X133652408Y-121125000D01*
X133382510Y-121178686D01*
X133128273Y-121283995D01*
X132899465Y-121436880D01*
X132704880Y-121631465D01*
X132551995Y-121860273D01*
X132520000Y-121937515D01*
X132488005Y-121860273D01*
X132335120Y-121631465D01*
X132140535Y-121436880D01*
X131911727Y-121283995D01*
X131657490Y-121178686D01*
X131387592Y-121125000D01*
X131112408Y-121125000D01*
X130842510Y-121178686D01*
X130588273Y-121283995D01*
X130359465Y-121436880D01*
X130164880Y-121631465D01*
X130011995Y-121860273D01*
X129980000Y-121937515D01*
X129948005Y-121860273D01*
X129795120Y-121631465D01*
X129600535Y-121436880D01*
X129371727Y-121283995D01*
X129117490Y-121178686D01*
X128847592Y-121125000D01*
X128572408Y-121125000D01*
X128302510Y-121178686D01*
X128048273Y-121283995D01*
X127819465Y-121436880D01*
X127624880Y-121631465D01*
X127471995Y-121860273D01*
X127440000Y-121937515D01*
X127408005Y-121860273D01*
X127255120Y-121631465D01*
X127060535Y-121436880D01*
X126831727Y-121283995D01*
X126577490Y-121178686D01*
X126307592Y-121125000D01*
X126032408Y-121125000D01*
X125762510Y-121178686D01*
X125728000Y-121192981D01*
X125728000Y-116418801D01*
X136038431Y-106108372D01*
X136192408Y-106139000D01*
X136467592Y-106139000D01*
X136737490Y-106085314D01*
X136991727Y-105980005D01*
X137220535Y-105827120D01*
X137415120Y-105632535D01*
X137568005Y-105403727D01*
X137600000Y-105326485D01*
X137631995Y-105403727D01*
X137784880Y-105632535D01*
X137979465Y-105827120D01*
X138208273Y-105980005D01*
X138462510Y-106085314D01*
X138732408Y-106139000D01*
X139007592Y-106139000D01*
X139277490Y-106085314D01*
X139531727Y-105980005D01*
X139760535Y-105827120D01*
X139955120Y-105632535D01*
X140108005Y-105403727D01*
X140140000Y-105326485D01*
X140171995Y-105403727D01*
X140324880Y-105632535D01*
X140519465Y-105827120D01*
X140748273Y-105980005D01*
X141002510Y-106085314D01*
X141272408Y-106139000D01*
X141547592Y-106139000D01*
X141817490Y-106085314D01*
X142071727Y-105980005D01*
X142300535Y-105827120D01*
X142495120Y-105632535D01*
X142648005Y-105403727D01*
X142680000Y-105326485D01*
X142711995Y-105403727D01*
X142864880Y-105632535D01*
X143059465Y-105827120D01*
X143288273Y-105980005D01*
X143542510Y-106085314D01*
X143812408Y-106139000D01*
X144087592Y-106139000D01*
X144357490Y-106085314D01*
X144611727Y-105980005D01*
X144840535Y-105827120D01*
X145035120Y-105632535D01*
X145188005Y-105403727D01*
X145220000Y-105326485D01*
X145251995Y-105403727D01*
X145404880Y-105632535D01*
X145599465Y-105827120D01*
X145828273Y-105980005D01*
X146082510Y-106085314D01*
X146352408Y-106139000D01*
X146627592Y-106139000D01*
X146897490Y-106085314D01*
X147151727Y-105980005D01*
X147380535Y-105827120D01*
X147575120Y-105632535D01*
X147728005Y-105403727D01*
X147833314Y-105149490D01*
X147887000Y-104879592D01*
X147887000Y-104604408D01*
X147833314Y-104334510D01*
X147728005Y-104080273D01*
X147575120Y-103851465D01*
X147380535Y-103656880D01*
X147151727Y-103503995D01*
X146897490Y-103398686D01*
X146627592Y-103345000D01*
X146352408Y-103345000D01*
X146082510Y-103398686D01*
X145828273Y-103503995D01*
X145599465Y-103656880D01*
X145404880Y-103851465D01*
X145251995Y-104080273D01*
X145220000Y-104157515D01*
X145188005Y-104080273D01*
X145035120Y-103851465D01*
X144840535Y-103656880D01*
X144611727Y-103503995D01*
X144357490Y-103398686D01*
X144087592Y-103345000D01*
X143812408Y-103345000D01*
X143542510Y-103398686D01*
X143288273Y-103503995D01*
X143059465Y-103656880D01*
X142864880Y-103851465D01*
X142711995Y-104080273D01*
X142680000Y-104157515D01*
X142648005Y-104080273D01*
X142495120Y-103851465D01*
X142300535Y-103656880D01*
X142071727Y-103503995D01*
X141817490Y-103398686D01*
X141547592Y-103345000D01*
X141272408Y-103345000D01*
X141002510Y-103398686D01*
X140748273Y-103503995D01*
X140519465Y-103656880D01*
X140324880Y-103851465D01*
X140171995Y-104080273D01*
X140140000Y-104157515D01*
X140108005Y-104080273D01*
X139955120Y-103851465D01*
X139760535Y-103656880D01*
X139531727Y-103503995D01*
X139277490Y-103398686D01*
X139007592Y-103345000D01*
X138732408Y-103345000D01*
X138462510Y-103398686D01*
X138208273Y-103503995D01*
X137979465Y-103656880D01*
X137784880Y-103851465D01*
X137631995Y-104080273D01*
X137600000Y-104157515D01*
X137568005Y-104080273D01*
X137415120Y-103851465D01*
X137220535Y-103656880D01*
X136991727Y-103503995D01*
X136737490Y-103398686D01*
X136467592Y-103345000D01*
X136192408Y-103345000D01*
X135922510Y-103398686D01*
X135668273Y-103503995D01*
X135439465Y-103656880D01*
X135244880Y-103851465D01*
X135091995Y-104080273D01*
X135060000Y-104157515D01*
X135028005Y-104080273D01*
X134875120Y-103851465D01*
X134680535Y-103656880D01*
X134451727Y-103503995D01*
X134197490Y-103398686D01*
X133927592Y-103345000D01*
X133652408Y-103345000D01*
X133382510Y-103398686D01*
X133128273Y-103503995D01*
X132899465Y-103656880D01*
X132704880Y-103851465D01*
X132551995Y-104080273D01*
X132520000Y-104157515D01*
X132488005Y-104080273D01*
X132335120Y-103851465D01*
X132140535Y-103656880D01*
X131911727Y-103503995D01*
X131657490Y-103398686D01*
X131387592Y-103345000D01*
X131112408Y-103345000D01*
X130842510Y-103398686D01*
X130588273Y-103503995D01*
X130359465Y-103656880D01*
X130164880Y-103851465D01*
X130011995Y-104080273D01*
X129980000Y-104157515D01*
X129948005Y-104080273D01*
X129795120Y-103851465D01*
X129600535Y-103656880D01*
X129371727Y-103503995D01*
X129117490Y-103398686D01*
X128847592Y-103345000D01*
X128572408Y-103345000D01*
X128302510Y-103398686D01*
X128048273Y-103503995D01*
X127819465Y-103656880D01*
X127624880Y-103851465D01*
X127471995Y-104080273D01*
X127440000Y-104157515D01*
X127408005Y-104080273D01*
X127255120Y-103851465D01*
X127060535Y-103656880D01*
X126831727Y-103503995D01*
X126577490Y-103398686D01*
X126307592Y-103345000D01*
X126032408Y-103345000D01*
X125762510Y-103398686D01*
X125508273Y-103503995D01*
X125279465Y-103656880D01*
X125084880Y-103851465D01*
X124931995Y-104080273D01*
X124900000Y-104157515D01*
X124868005Y-104080273D01*
X124715120Y-103851465D01*
X124520535Y-103656880D01*
X124291727Y-103503995D01*
X124037490Y-103398686D01*
X123767592Y-103345000D01*
X123492408Y-103345000D01*
X123222510Y-103398686D01*
X122968273Y-103503995D01*
X122739465Y-103656880D01*
X122544880Y-103851465D01*
X122391995Y-104080273D01*
X122360000Y-104157515D01*
X122328005Y-104080273D01*
X122175120Y-103851465D01*
X121980535Y-103656880D01*
X121751727Y-103503995D01*
X121497490Y-103398686D01*
X121227592Y-103345000D01*
X120952408Y-103345000D01*
X120682510Y-103398686D01*
X120428273Y-103503995D01*
X120199465Y-103656880D01*
X120004880Y-103851465D01*
X119851995Y-104080273D01*
X119820000Y-104157515D01*
X119788005Y-104080273D01*
X119635120Y-103851465D01*
X119440535Y-103656880D01*
X119211727Y-103503995D01*
X118957490Y-103398686D01*
X118687592Y-103345000D01*
X118412408Y-103345000D01*
X118142510Y-103398686D01*
X117888273Y-103503995D01*
X117659465Y-103656880D01*
X117464880Y-103851465D01*
X117311995Y-104080273D01*
X117280000Y-104157515D01*
X117248005Y-104080273D01*
X117095120Y-103851465D01*
X116900535Y-103656880D01*
X116671727Y-103503995D01*
X116417490Y-103398686D01*
X116147592Y-103345000D01*
X115872408Y-103345000D01*
X115602510Y-103398686D01*
X115348273Y-103503995D01*
X115119465Y-103656880D01*
X114924880Y-103851465D01*
X114771995Y-104080273D01*
X114740000Y-104157515D01*
X114708005Y-104080273D01*
X114555120Y-103851465D01*
X114360535Y-103656880D01*
X114131727Y-103503995D01*
X113877490Y-103398686D01*
X113607592Y-103345000D01*
X113332408Y-103345000D01*
X113062510Y-103398686D01*
X112808273Y-103503995D01*
X112579465Y-103656880D01*
X112384880Y-103851465D01*
X112231995Y-104080273D01*
X112126686Y-104334510D01*
X112073000Y-104604408D01*
X112073000Y-104879592D01*
X112126686Y-105149490D01*
X112231995Y-105403727D01*
X112384880Y-105632535D01*
X112579465Y-105827120D01*
X112808273Y-105980005D01*
X113062510Y-106085314D01*
X113332408Y-106139000D01*
X113607592Y-106139000D01*
X113877490Y-106085314D01*
X114131727Y-105980005D01*
X114360535Y-105827120D01*
X114555120Y-105632535D01*
X114708005Y-105403727D01*
X114740000Y-105326485D01*
X114771995Y-105403727D01*
X114924880Y-105632535D01*
X115119465Y-105827120D01*
X115348273Y-105980005D01*
X115602510Y-106085314D01*
X115872408Y-106139000D01*
X116147592Y-106139000D01*
X116417490Y-106085314D01*
X116671727Y-105980005D01*
X116900535Y-105827120D01*
X117095120Y-105632535D01*
X117248005Y-105403727D01*
X117280000Y-105326485D01*
X117311995Y-105403727D01*
X117464880Y-105632535D01*
X117659465Y-105827120D01*
X117790001Y-105914341D01*
X117790000Y-107285198D01*
X111088998Y-113986201D01*
X111060000Y-114009999D01*
X111036202Y-114038997D01*
X111036201Y-114038998D01*
X110965026Y-114125724D01*
X110894454Y-114257754D01*
X110883977Y-114292294D01*
X110855749Y-114385354D01*
X110850998Y-114401015D01*
X110836324Y-114550000D01*
X108330486Y-114550000D01*
X108331000Y-112776037D01*
X108331000Y-112775953D01*
X108327000Y-102000000D01*
X108327000Y-100685000D01*
X182966495Y-100685000D01*
X183254782Y-100713267D01*
X183254782Y-100713267D01*
G37*
X183254782Y-100713267D02*
X183499855Y-100787259D01*
X183725890Y-100907443D01*
X183924281Y-101069248D01*
X184087460Y-101266497D01*
X184209220Y-101491687D01*
X184284924Y-101736247D01*
X184315000Y-102022398D01*
X184315001Y-150966484D01*
X184286733Y-151254782D01*
X184212741Y-151499855D01*
X184092554Y-151725893D01*
X183930754Y-151924279D01*
X183733503Y-152087460D01*
X183508310Y-152209221D01*
X183263753Y-152284924D01*
X182977602Y-152315000D01*
X102033505Y-152315000D01*
X101745218Y-152286733D01*
X101500145Y-152212741D01*
X101274107Y-152092554D01*
X101075721Y-151930754D01*
X100912540Y-151733503D01*
X100790779Y-151508310D01*
X100715076Y-151263753D01*
X100685000Y-150977602D01*
X100685000Y-145091229D01*
X101373000Y-145091229D01*
X101373000Y-145708771D01*
X101493476Y-146314446D01*
X101729799Y-146884979D01*
X102072886Y-147398446D01*
X102509554Y-147835114D01*
X103023021Y-148178201D01*
X103593554Y-148414524D01*
X104199229Y-148535000D01*
X104816771Y-148535000D01*
X105422446Y-148414524D01*
X105992979Y-148178201D01*
X106506446Y-147835114D01*
X106943114Y-147398446D01*
X107286201Y-146884979D01*
X107522524Y-146314446D01*
X107643000Y-145708771D01*
X107643000Y-145091229D01*
X107522524Y-144485554D01*
X107286201Y-143915021D01*
X106943114Y-143401554D01*
X106506446Y-142964886D01*
X105992979Y-142621799D01*
X105422446Y-142385476D01*
X104816771Y-142265000D01*
X104199229Y-142265000D01*
X103593554Y-142385476D01*
X103023021Y-142621799D01*
X102509554Y-142964886D01*
X102072886Y-143401554D01*
X101729799Y-143915021D01*
X101493476Y-144485554D01*
X101373000Y-145091229D01*
X100685000Y-145091229D01*
X100685000Y-126727000D01*
X103887533Y-126727000D01*
X103593554Y-126785476D01*
X103023021Y-127021799D01*
X102509554Y-127364886D01*
X102072886Y-127801554D01*
X101729799Y-128315021D01*
X101493476Y-128885554D01*
X101373000Y-129491229D01*
X101373000Y-130108771D01*
X101493476Y-130714446D01*
X101729799Y-131284979D01*
X102072886Y-131798446D01*
X102509554Y-132235114D01*
X103023021Y-132578201D01*
X103593554Y-132814524D01*
X104199229Y-132935000D01*
X104816771Y-132935000D01*
X105422446Y-132814524D01*
X105992979Y-132578201D01*
X106506446Y-132235114D01*
X106943114Y-131798446D01*
X107286201Y-131284979D01*
X107522524Y-130714446D01*
X107643000Y-130108771D01*
X107643000Y-129491229D01*
X107522524Y-128885554D01*
X107286201Y-128315021D01*
X106943114Y-127801554D01*
X106506446Y-127364886D01*
X105992979Y-127021799D01*
X105422446Y-126785476D01*
X105128467Y-126727000D01*
X108200000Y-126727000D01*
X108224776Y-126724560D01*
X108248601Y-126717333D01*
X108270557Y-126705597D01*
X108289803Y-126689803D01*
X108305597Y-126670557D01*
X108317333Y-126648601D01*
X108324560Y-126624776D01*
X108327000Y-126600037D01*
X108330486Y-114550000D01*
X110836324Y-114550000D01*
X110840001Y-114587333D01*
X110840000Y-135454678D01*
X110836324Y-135492000D01*
X110840000Y-135529322D01*
X110840000Y-135529332D01*
X110850997Y-135640985D01*
X110888017Y-135763026D01*
X110894454Y-135784246D01*
X110965026Y-135916276D01*
X111004871Y-135964826D01*
X111059999Y-136032001D01*
X111089003Y-136055804D01*
X112441628Y-137408430D01*
X112411000Y-137562408D01*
X112411000Y-137837592D01*
X112464686Y-138107490D01*
X112569995Y-138361727D01*
X112722880Y-138590535D01*
X112917465Y-138785120D01*
X113005465Y-138843920D01*
X112921518Y-138852188D01*
X112801820Y-138888498D01*
X112691506Y-138947463D01*
X112594815Y-139026815D01*
X112515463Y-139123506D01*
X112456498Y-139233820D01*
X112420188Y-139353518D01*
X112407928Y-139478000D01*
X112411000Y-139954250D01*
X112569750Y-140113000D01*
X113681000Y-140113000D01*
X113681000Y-140093000D01*
X113935000Y-140093000D01*
X113935000Y-140113000D01*
X115046250Y-140113000D01*
X115205000Y-139954250D01*
X115208072Y-139478000D01*
X115195812Y-139353518D01*
X115159502Y-139233820D01*
X115100537Y-139123506D01*
X115021185Y-139026815D01*
X114924494Y-138947463D01*
X114814180Y-138888498D01*
X114694482Y-138852188D01*
X114610535Y-138843920D01*
X114698535Y-138785120D01*
X114893120Y-138590535D01*
X115046005Y-138361727D01*
X115151314Y-138107490D01*
X115205000Y-137837592D01*
X115205000Y-137562408D01*
X115151314Y-137292510D01*
X115046005Y-137038273D01*
X114893120Y-136809465D01*
X114698535Y-136614880D01*
X114469727Y-136461995D01*
X114392485Y-136430000D01*
X114469727Y-136398005D01*
X114698535Y-136245120D01*
X114893120Y-136050535D01*
X115046005Y-135821727D01*
X115151314Y-135567490D01*
X115205000Y-135297592D01*
X115205000Y-135022408D01*
X115151314Y-134752510D01*
X115046005Y-134498273D01*
X114893120Y-134269465D01*
X114698535Y-134074880D01*
X114469727Y-133921995D01*
X114392485Y-133890000D01*
X114469727Y-133858005D01*
X114698535Y-133705120D01*
X114893120Y-133510535D01*
X115046005Y-133281727D01*
X115151314Y-133027490D01*
X115205000Y-132757592D01*
X115205000Y-132482408D01*
X115151314Y-132212510D01*
X115046005Y-131958273D01*
X114893120Y-131729465D01*
X114698535Y-131534880D01*
X114469727Y-131381995D01*
X114215490Y-131276686D01*
X113945592Y-131223000D01*
X113670408Y-131223000D01*
X113400510Y-131276686D01*
X113146273Y-131381995D01*
X112917465Y-131534880D01*
X112860000Y-131592345D01*
X112860000Y-123781431D01*
X113062510Y-123865314D01*
X113332408Y-123919000D01*
X113607592Y-123919000D01*
X113877490Y-123865314D01*
X114131727Y-123760005D01*
X114360535Y-123607120D01*
X114555120Y-123412535D01*
X114708005Y-123183727D01*
X114740000Y-123106485D01*
X114771995Y-123183727D01*
X114924880Y-123412535D01*
X115119465Y-123607120D01*
X115348273Y-123760005D01*
X115602510Y-123865314D01*
X115872408Y-123919000D01*
X116147592Y-123919000D01*
X116417490Y-123865314D01*
X116671727Y-123760005D01*
X116900535Y-123607120D01*
X117095120Y-123412535D01*
X117248005Y-123183727D01*
X117280000Y-123106485D01*
X117311995Y-123183727D01*
X117464880Y-123412535D01*
X117659465Y-123607120D01*
X117888273Y-123760005D01*
X118142510Y-123865314D01*
X118412408Y-123919000D01*
X118687592Y-123919000D01*
X118957490Y-123865314D01*
X119211727Y-123760005D01*
X119440535Y-123607120D01*
X119635120Y-123412535D01*
X119788005Y-123183727D01*
X119820000Y-123106485D01*
X119851995Y-123183727D01*
X120004880Y-123412535D01*
X120199465Y-123607120D01*
X120428273Y-123760005D01*
X120682510Y-123865314D01*
X120952408Y-123919000D01*
X121065199Y-123919000D01*
X120646998Y-124337201D01*
X120618000Y-124360999D01*
X120594202Y-124389997D01*
X120594201Y-124389998D01*
X120523026Y-124476724D01*
X120452454Y-124608754D01*
X120445714Y-124630974D01*
X120408998Y-124752014D01*
X120398099Y-124862668D01*
X120394324Y-124901000D01*
X120398001Y-124938332D01*
X120398001Y-125765928D01*
X120308000Y-125765928D01*
X120183518Y-125778188D01*
X120063820Y-125814498D01*
X119953506Y-125873463D01*
X119856815Y-125952815D01*
X119777463Y-126049506D01*
X119718498Y-126159820D01*
X119682188Y-126279518D01*
X119669928Y-126404000D01*
X119669928Y-128104000D01*
X119682188Y-128228482D01*
X119718498Y-128348180D01*
X119777463Y-128458494D01*
X119856815Y-128555185D01*
X119953506Y-128634537D01*
X120063820Y-128693502D01*
X120183518Y-128729812D01*
X120308000Y-128742072D01*
X122008000Y-128742072D01*
X122132482Y-128729812D01*
X122252180Y-128693502D01*
X122362494Y-128634537D01*
X122459185Y-128555185D01*
X122538537Y-128458494D01*
X122597502Y-128348180D01*
X122618393Y-128279313D01*
X122642866Y-128309134D01*
X122868986Y-128494706D01*
X123126966Y-128632599D01*
X123406889Y-128717513D01*
X123625050Y-128739000D01*
X123770950Y-128739000D01*
X123989111Y-128717513D01*
X124269034Y-128632599D01*
X124303000Y-128614444D01*
X124302999Y-131210199D01*
X115096224Y-140416974D01*
X115046250Y-140367000D01*
X113935000Y-140367000D01*
X113935000Y-140387000D01*
X113681000Y-140387000D01*
X113681000Y-140367000D01*
X112569750Y-140367000D01*
X112411000Y-140525750D01*
X112407928Y-141002000D01*
X112420188Y-141126482D01*
X112456498Y-141246180D01*
X112515463Y-141356494D01*
X112594815Y-141453185D01*
X112691506Y-141532537D01*
X112801820Y-141591502D01*
X112921518Y-141627812D01*
X113005465Y-141636080D01*
X112917465Y-141694880D01*
X112722880Y-141889465D01*
X112569995Y-142118273D01*
X112464686Y-142372510D01*
X112411000Y-142642408D01*
X112411000Y-142917592D01*
X112464686Y-143187490D01*
X112569995Y-143441727D01*
X112722880Y-143670535D01*
X112917465Y-143865120D01*
X113146273Y-144018005D01*
X113400510Y-144123314D01*
X113670408Y-144177000D01*
X113945592Y-144177000D01*
X114215490Y-144123314D01*
X114469727Y-144018005D01*
X114698535Y-143865120D01*
X114893120Y-143670535D01*
X115046005Y-143441727D01*
X115151314Y-143187490D01*
X115205000Y-142917592D01*
X115205000Y-142642408D01*
X115174372Y-142488429D01*
X122112801Y-135550000D01*
X131561928Y-135550000D01*
X131574188Y-135674482D01*
X131610498Y-135794180D01*
X131669463Y-135904494D01*
X131748815Y-136001185D01*
X131818044Y-136058000D01*
X131748815Y-136114815D01*
X131669463Y-136211506D01*
X131610498Y-136321820D01*
X131574188Y-136441518D01*
X131561928Y-136566000D01*
X131565000Y-137042250D01*
X131723750Y-137201000D01*
X132835000Y-137201000D01*
X132835000Y-136089750D01*
X132803250Y-136058000D01*
X132835000Y-136026250D01*
X132835000Y-134915000D01*
X133089000Y-134915000D01*
X133089000Y-136026250D01*
X133120750Y-136058000D01*
X133089000Y-136089750D01*
X133089000Y-137201000D01*
X134200250Y-137201000D01*
X134359000Y-137042250D01*
X134362072Y-136566000D01*
X134349812Y-136441518D01*
X134313502Y-136321820D01*
X134254537Y-136211506D01*
X134175185Y-136114815D01*
X134105956Y-136058000D01*
X134175185Y-136001185D01*
X134254537Y-135904494D01*
X134313502Y-135794180D01*
X134349812Y-135674482D01*
X134362072Y-135550000D01*
X134359000Y-135073750D01*
X134200250Y-134915000D01*
X133089000Y-134915000D01*
X132835000Y-134915000D01*
X131723750Y-134915000D01*
X131565000Y-135073750D01*
X131561928Y-135550000D01*
X122112801Y-135550000D01*
X125574003Y-132088799D01*
X125603000Y-132065002D01*
X125697973Y-131949277D01*
X125768545Y-131817248D01*
X125812002Y-131673987D01*
X125822999Y-131562334D01*
X125822999Y-131562325D01*
X125826675Y-131525002D01*
X125822999Y-131487679D01*
X125822999Y-128679931D01*
X125946889Y-128717513D01*
X126165050Y-128739000D01*
X126310950Y-128739000D01*
X126529111Y-128717513D01*
X126603996Y-128694797D01*
X130668201Y-132759003D01*
X130691999Y-132788001D01*
X130720997Y-132811799D01*
X130807724Y-132882974D01*
X130939753Y-132953546D01*
X131083014Y-132997003D01*
X131232000Y-133011677D01*
X131269333Y-133008000D01*
X131789659Y-133008000D01*
X131876880Y-133138535D01*
X132071465Y-133333120D01*
X132159465Y-133391920D01*
X132075518Y-133400188D01*
X131955820Y-133436498D01*
X131845506Y-133495463D01*
X131748815Y-133574815D01*
X131669463Y-133671506D01*
X131610498Y-133781820D01*
X131574188Y-133901518D01*
X131561928Y-134026000D01*
X131565000Y-134502250D01*
X131723750Y-134661000D01*
X132835000Y-134661000D01*
X132835000Y-134641000D01*
X133089000Y-134641000D01*
X133089000Y-134661000D01*
X134200250Y-134661000D01*
X134359000Y-134502250D01*
X134362072Y-134026000D01*
X134349812Y-133901518D01*
X134313502Y-133781820D01*
X134254537Y-133671506D01*
X134175185Y-133574815D01*
X134078494Y-133495463D01*
X133968180Y-133436498D01*
X133848482Y-133400188D01*
X133764535Y-133391920D01*
X133852535Y-133333120D01*
X134047120Y-133138535D01*
X134200005Y-132909727D01*
X134305314Y-132655490D01*
X134359000Y-132385592D01*
X134359000Y-132110408D01*
X134305314Y-131840510D01*
X134200005Y-131586273D01*
X134115299Y-131459502D01*
X139049570Y-126525231D01*
X138930654Y-126812321D01*
X138839000Y-127273098D01*
X138839000Y-127742902D01*
X138930654Y-128203679D01*
X139110440Y-128637721D01*
X139371450Y-129028349D01*
X139703651Y-129360550D01*
X140094279Y-129621560D01*
X140339000Y-129722927D01*
X140339001Y-131713420D01*
X134359511Y-137692911D01*
X134359000Y-137613750D01*
X134200250Y-137455000D01*
X133089000Y-137455000D01*
X133089000Y-137475000D01*
X132835000Y-137475000D01*
X132835000Y-137455000D01*
X131723750Y-137455000D01*
X131565000Y-137613750D01*
X131561928Y-138090000D01*
X131574188Y-138214482D01*
X131610498Y-138334180D01*
X131669463Y-138444494D01*
X131748815Y-138541185D01*
X131845506Y-138620537D01*
X131955820Y-138679502D01*
X132075518Y-138715812D01*
X132159465Y-138724080D01*
X132071465Y-138782880D01*
X131876880Y-138977465D01*
X131723995Y-139206273D01*
X131618686Y-139460510D01*
X131565000Y-139730408D01*
X131565000Y-140005592D01*
X131618686Y-140275490D01*
X131723995Y-140529727D01*
X131876880Y-140758535D01*
X132071465Y-140953120D01*
X132300273Y-141106005D01*
X132377515Y-141138000D01*
X132300273Y-141169995D01*
X132071465Y-141322880D01*
X131876880Y-141517465D01*
X131723995Y-141746273D01*
X131618686Y-142000510D01*
X131565000Y-142270408D01*
X131565000Y-142545592D01*
X131618686Y-142815490D01*
X131723995Y-143069727D01*
X131876880Y-143298535D01*
X132071465Y-143493120D01*
X132300273Y-143646005D01*
X132554510Y-143751314D01*
X132824408Y-143805000D01*
X133099592Y-143805000D01*
X133369490Y-143751314D01*
X133623727Y-143646005D01*
X133852535Y-143493120D01*
X134047120Y-143298535D01*
X134200005Y-143069727D01*
X134305314Y-142815490D01*
X134359000Y-142545592D01*
X134359000Y-142270408D01*
X134305314Y-142000510D01*
X134200005Y-141746273D01*
X134047120Y-141517465D01*
X133852535Y-141322880D01*
X133623727Y-141169995D01*
X133546485Y-141138000D01*
X133623727Y-141106005D01*
X133852535Y-140953120D01*
X134047120Y-140758535D01*
X134200005Y-140529727D01*
X134305314Y-140275490D01*
X134311578Y-140244000D01*
X141819049Y-132736530D01*
X141852817Y-132708817D01*
X141919976Y-132626985D01*
X141963410Y-132574060D01*
X141975728Y-132551015D01*
X142045589Y-132420313D01*
X142096195Y-132253490D01*
X142109000Y-132123477D01*
X142109000Y-132123467D01*
X142113281Y-132080001D01*
X142109000Y-132036535D01*
X142109000Y-129722927D01*
X142353721Y-129621560D01*
X142744349Y-129360550D01*
X143076550Y-129028349D01*
X143337560Y-128637721D01*
X143383311Y-128527268D01*
X143989000Y-128527268D01*
X143989000Y-128888732D01*
X144059518Y-129243250D01*
X144197844Y-129577199D01*
X144398662Y-129877744D01*
X144654256Y-130133338D01*
X144954801Y-130334156D01*
X145288750Y-130472482D01*
X145643268Y-130543000D01*
X146004732Y-130543000D01*
X146359250Y-130472482D01*
X146693199Y-130334156D01*
X146993744Y-130133338D01*
X147249338Y-129877744D01*
X147450156Y-129577199D01*
X147588482Y-129243250D01*
X147659000Y-128888732D01*
X147659000Y-128527268D01*
X147588482Y-128172750D01*
X147450156Y-127838801D01*
X147249338Y-127538256D01*
X146993744Y-127282662D01*
X146979431Y-127273098D01*
X148039000Y-127273098D01*
X148039000Y-127742902D01*
X148130654Y-128203679D01*
X148310440Y-128637721D01*
X148571450Y-129028349D01*
X148903651Y-129360550D01*
X149294279Y-129621560D01*
X149539000Y-129722927D01*
X149539001Y-147332521D01*
X149534719Y-147376000D01*
X149551805Y-147549490D01*
X149602412Y-147716313D01*
X149684590Y-147870059D01*
X149767468Y-147971046D01*
X149767471Y-147971049D01*
X149795184Y-148004817D01*
X149828951Y-148032530D01*
X153775470Y-151979049D01*
X153803183Y-152012817D01*
X153836951Y-152040530D01*
X153836953Y-152040532D01*
X153872514Y-152069716D01*
X153937941Y-152123411D01*
X154091687Y-152205589D01*
X154169541Y-152229206D01*
X154258509Y-152256195D01*
X154273306Y-152257652D01*
X154388523Y-152269000D01*
X154388531Y-152269000D01*
X154432000Y-152273281D01*
X154475469Y-152269000D01*
X168612531Y-152269000D01*
X168656000Y-152273281D01*
X168699469Y-152269000D01*
X168699477Y-152269000D01*
X168829490Y-152256195D01*
X168996313Y-152205589D01*
X169150059Y-152123411D01*
X169284817Y-152012817D01*
X169312534Y-151979044D01*
X173262967Y-148028612D01*
X173409050Y-148043000D01*
X173554950Y-148043000D01*
X173773111Y-148021513D01*
X174053034Y-147936599D01*
X174311014Y-147798706D01*
X174537134Y-147613134D01*
X174561607Y-147583313D01*
X174582498Y-147652180D01*
X174641463Y-147762494D01*
X174720815Y-147859185D01*
X174817506Y-147938537D01*
X174927820Y-147997502D01*
X175047518Y-148033812D01*
X175172000Y-148046072D01*
X175736250Y-148043000D01*
X175895000Y-147884250D01*
X175895000Y-146685000D01*
X176149000Y-146685000D01*
X176149000Y-147884250D01*
X176307750Y-148043000D01*
X176872000Y-148046072D01*
X176996482Y-148033812D01*
X177116180Y-147997502D01*
X177226494Y-147938537D01*
X177323185Y-147859185D01*
X177402537Y-147762494D01*
X177461502Y-147652180D01*
X177497812Y-147532482D01*
X177510072Y-147408000D01*
X177507000Y-146843750D01*
X177348250Y-146685000D01*
X176149000Y-146685000D01*
X175895000Y-146685000D01*
X175875000Y-146685000D01*
X175875000Y-146431000D01*
X175895000Y-146431000D01*
X175895000Y-145231750D01*
X176149000Y-145231750D01*
X176149000Y-146431000D01*
X177348250Y-146431000D01*
X177507000Y-146272250D01*
X177510072Y-145708000D01*
X177497812Y-145583518D01*
X177461502Y-145463820D01*
X177402537Y-145353506D01*
X177323185Y-145256815D01*
X177226494Y-145177463D01*
X177116180Y-145118498D01*
X176996482Y-145082188D01*
X176872000Y-145069928D01*
X176307750Y-145073000D01*
X176149000Y-145231750D01*
X175895000Y-145231750D01*
X175736250Y-145073000D01*
X175172000Y-145069928D01*
X175047518Y-145082188D01*
X174927820Y-145118498D01*
X174817506Y-145177463D01*
X174720815Y-145256815D01*
X174641463Y-145353506D01*
X174582498Y-145463820D01*
X174561607Y-145532687D01*
X174537134Y-145502866D01*
X174311014Y-145317294D01*
X174053034Y-145179401D01*
X173773111Y-145094487D01*
X173554950Y-145073000D01*
X173409050Y-145073000D01*
X173190889Y-145094487D01*
X172910966Y-145179401D01*
X172652986Y-145317294D01*
X172426866Y-145502866D01*
X172241294Y-145728986D01*
X172103401Y-145986966D01*
X172018487Y-146266889D01*
X171989815Y-146558000D01*
X172011388Y-146777033D01*
X168289422Y-150499000D01*
X154798579Y-150499000D01*
X151309000Y-147009422D01*
X151309000Y-138584408D01*
X156513000Y-138584408D01*
X156513000Y-138859592D01*
X156566686Y-139129490D01*
X156671995Y-139383727D01*
X156824880Y-139612535D01*
X157019465Y-139807120D01*
X157248273Y-139960005D01*
X157325515Y-139992000D01*
X157248273Y-140023995D01*
X157019465Y-140176880D01*
X156824880Y-140371465D01*
X156671995Y-140600273D01*
X156566686Y-140854510D01*
X156513000Y-141124408D01*
X156513000Y-141399592D01*
X156566686Y-141669490D01*
X156671995Y-141923727D01*
X156824880Y-142152535D01*
X157019465Y-142347120D01*
X157248273Y-142500005D01*
X157325515Y-142532000D01*
X157248273Y-142563995D01*
X157019465Y-142716880D01*
X156824880Y-142911465D01*
X156671995Y-143140273D01*
X156566686Y-143394510D01*
X156513000Y-143664408D01*
X156513000Y-143939592D01*
X156566686Y-144209490D01*
X156671995Y-144463727D01*
X156824880Y-144692535D01*
X157019465Y-144887120D01*
X157248273Y-145040005D01*
X157325515Y-145072000D01*
X157248273Y-145103995D01*
X157019465Y-145256880D01*
X156824880Y-145451465D01*
X156671995Y-145680273D01*
X156566686Y-145934510D01*
X156513000Y-146204408D01*
X156513000Y-146479592D01*
X156566686Y-146749490D01*
X156671995Y-147003727D01*
X156824880Y-147232535D01*
X157019465Y-147427120D01*
X157248273Y-147580005D01*
X157502510Y-147685314D01*
X157772408Y-147739000D01*
X158047592Y-147739000D01*
X158317490Y-147685314D01*
X158571727Y-147580005D01*
X158800535Y-147427120D01*
X158995120Y-147232535D01*
X159148005Y-147003727D01*
X159253314Y-146749490D01*
X159307000Y-146479592D01*
X159307000Y-146204408D01*
X159253314Y-145934510D01*
X159148005Y-145680273D01*
X158995120Y-145451465D01*
X158800535Y-145256880D01*
X158571727Y-145103995D01*
X158494485Y-145072000D01*
X158571727Y-145040005D01*
X158800535Y-144887120D01*
X158995120Y-144692535D01*
X159148005Y-144463727D01*
X159253314Y-144209490D01*
X159307000Y-143939592D01*
X159307000Y-143664408D01*
X159253314Y-143394510D01*
X159148005Y-143140273D01*
X158995120Y-142911465D01*
X158800535Y-142716880D01*
X158571727Y-142563995D01*
X158494485Y-142532000D01*
X158571727Y-142500005D01*
X158800535Y-142347120D01*
X158995120Y-142152535D01*
X159148005Y-141923727D01*
X159253314Y-141669490D01*
X159307000Y-141399592D01*
X159307000Y-141124408D01*
X159253314Y-140854510D01*
X159148005Y-140600273D01*
X158995120Y-140371465D01*
X158800535Y-140176880D01*
X158571727Y-140023995D01*
X158494485Y-139992000D01*
X158571727Y-139960005D01*
X158800535Y-139807120D01*
X158995120Y-139612535D01*
X159148005Y-139383727D01*
X159253314Y-139129490D01*
X159307000Y-138859592D01*
X159307000Y-138584408D01*
X159253314Y-138314510D01*
X159148005Y-138060273D01*
X158995120Y-137831465D01*
X158800535Y-137636880D01*
X158571727Y-137483995D01*
X158500057Y-137454308D01*
X158513023Y-137449636D01*
X158628980Y-137387656D01*
X158695960Y-137147565D01*
X157910000Y-136361605D01*
X157124040Y-137147565D01*
X157191020Y-137387656D01*
X157326760Y-137451485D01*
X157248273Y-137483995D01*
X157019465Y-137636880D01*
X156824880Y-137831465D01*
X156671995Y-138060273D01*
X156566686Y-138314510D01*
X156513000Y-138584408D01*
X151309000Y-138584408D01*
X151309000Y-136254017D01*
X156508090Y-136254017D01*
X156549078Y-136526133D01*
X156642364Y-136785023D01*
X156704344Y-136900980D01*
X156944435Y-136967960D01*
X157730395Y-136182000D01*
X158089605Y-136182000D01*
X158875565Y-136967960D01*
X159115656Y-136900980D01*
X159232756Y-136651952D01*
X159299023Y-136384865D01*
X159311910Y-136109983D01*
X159270922Y-135837867D01*
X159177636Y-135578977D01*
X159115656Y-135463020D01*
X158875565Y-135396040D01*
X158089605Y-136182000D01*
X157730395Y-136182000D01*
X156944435Y-135396040D01*
X156704344Y-135463020D01*
X156587244Y-135712048D01*
X156520977Y-135979135D01*
X156508090Y-136254017D01*
X151309000Y-136254017D01*
X151309000Y-135216435D01*
X157124040Y-135216435D01*
X157910000Y-136002395D01*
X158695960Y-135216435D01*
X158628980Y-134976344D01*
X158379952Y-134859244D01*
X158112865Y-134792977D01*
X157837983Y-134780090D01*
X157565867Y-134821078D01*
X157306977Y-134914364D01*
X157191020Y-134976344D01*
X157124040Y-135216435D01*
X151309000Y-135216435D01*
X151309000Y-129722927D01*
X151553721Y-129621560D01*
X151944349Y-129360550D01*
X152276550Y-129028349D01*
X152537560Y-128637721D01*
X152717346Y-128203679D01*
X152809000Y-127742902D01*
X152809000Y-127273098D01*
X152717346Y-126812321D01*
X152537560Y-126378279D01*
X152276550Y-125987651D01*
X151944349Y-125655450D01*
X151553721Y-125394440D01*
X151119679Y-125214654D01*
X150658902Y-125123000D01*
X150189098Y-125123000D01*
X149728321Y-125214654D01*
X149294279Y-125394440D01*
X148903651Y-125655450D01*
X148571450Y-125987651D01*
X148310440Y-126378279D01*
X148130654Y-126812321D01*
X148039000Y-127273098D01*
X146979431Y-127273098D01*
X146693199Y-127081844D01*
X146359250Y-126943518D01*
X146004732Y-126873000D01*
X145643268Y-126873000D01*
X145288750Y-126943518D01*
X144954801Y-127081844D01*
X144654256Y-127282662D01*
X144398662Y-127538256D01*
X144197844Y-127838801D01*
X144059518Y-128172750D01*
X143989000Y-128527268D01*
X143383311Y-128527268D01*
X143517346Y-128203679D01*
X143609000Y-127742902D01*
X143609000Y-127273098D01*
X143517346Y-126812321D01*
X143337560Y-126378279D01*
X143076550Y-125987651D01*
X142744349Y-125655450D01*
X142353721Y-125394440D01*
X142270575Y-125360000D01*
X144374678Y-125360000D01*
X144412000Y-125363676D01*
X144449322Y-125360000D01*
X144449333Y-125360000D01*
X144560986Y-125349003D01*
X144704247Y-125305546D01*
X144836276Y-125234974D01*
X144952001Y-125140001D01*
X144975804Y-125110997D01*
X146198430Y-123888372D01*
X146352408Y-123919000D01*
X146627592Y-123919000D01*
X146897490Y-123865314D01*
X147151727Y-123760005D01*
X147380535Y-123607120D01*
X147575120Y-123412535D01*
X147728005Y-123183727D01*
X147833314Y-122929490D01*
X147887000Y-122659592D01*
X147887000Y-122384408D01*
X147833314Y-122114510D01*
X147816704Y-122074408D01*
X156767000Y-122074408D01*
X156767000Y-122349592D01*
X156820686Y-122619490D01*
X156925995Y-122873727D01*
X157078880Y-123102535D01*
X157273465Y-123297120D01*
X157502273Y-123450005D01*
X157579515Y-123482000D01*
X157502273Y-123513995D01*
X157273465Y-123666880D01*
X157078880Y-123861465D01*
X156925995Y-124090273D01*
X156820686Y-124344510D01*
X156767000Y-124614408D01*
X156767000Y-124889592D01*
X156820686Y-125159490D01*
X156925995Y-125413727D01*
X157078880Y-125642535D01*
X157273465Y-125837120D01*
X157502273Y-125990005D01*
X157579515Y-126022000D01*
X157502273Y-126053995D01*
X157273465Y-126206880D01*
X157078880Y-126401465D01*
X156925995Y-126630273D01*
X156820686Y-126884510D01*
X156767000Y-127154408D01*
X156767000Y-127429592D01*
X156820686Y-127699490D01*
X156925995Y-127953727D01*
X157078880Y-128182535D01*
X157273465Y-128377120D01*
X157502273Y-128530005D01*
X157579515Y-128562000D01*
X157502273Y-128593995D01*
X157273465Y-128746880D01*
X157078880Y-128941465D01*
X156925995Y-129170273D01*
X156820686Y-129424510D01*
X156767000Y-129694408D01*
X156767000Y-129969592D01*
X156820686Y-130239490D01*
X156925995Y-130493727D01*
X157078880Y-130722535D01*
X157273465Y-130917120D01*
X157502273Y-131070005D01*
X157756510Y-131175314D01*
X158026408Y-131229000D01*
X158301592Y-131229000D01*
X158571490Y-131175314D01*
X158825727Y-131070005D01*
X159054535Y-130917120D01*
X159249120Y-130722535D01*
X159402005Y-130493727D01*
X159507314Y-130239490D01*
X159561000Y-129969592D01*
X159561000Y-129694408D01*
X159507314Y-129424510D01*
X159402005Y-129170273D01*
X159249120Y-128941465D01*
X159054535Y-128746880D01*
X158825727Y-128593995D01*
X158748485Y-128562000D01*
X158825727Y-128530005D01*
X159054535Y-128377120D01*
X159249120Y-128182535D01*
X159402005Y-127953727D01*
X159507314Y-127699490D01*
X159561000Y-127429592D01*
X159561000Y-127154408D01*
X159507314Y-126884510D01*
X159402005Y-126630273D01*
X159249120Y-126401465D01*
X159054535Y-126206880D01*
X158825727Y-126053995D01*
X158748485Y-126022000D01*
X158825727Y-125990005D01*
X159054535Y-125837120D01*
X159249120Y-125642535D01*
X159402005Y-125413727D01*
X159507314Y-125159490D01*
X159561000Y-124889592D01*
X159561000Y-124614408D01*
X159507314Y-124344510D01*
X159402005Y-124090273D01*
X159249120Y-123861465D01*
X159054535Y-123666880D01*
X158825727Y-123513995D01*
X158748485Y-123482000D01*
X158825727Y-123450005D01*
X159054535Y-123297120D01*
X159249120Y-123102535D01*
X159402005Y-122873727D01*
X159507314Y-122619490D01*
X159561000Y-122349592D01*
X159561000Y-122074408D01*
X159507314Y-121804510D01*
X159402005Y-121550273D01*
X159249120Y-121321465D01*
X159054535Y-121126880D01*
X158825727Y-120973995D01*
X158754057Y-120944308D01*
X158767023Y-120939636D01*
X158882980Y-120877656D01*
X158949960Y-120637565D01*
X158164000Y-119851605D01*
X157378040Y-120637565D01*
X157445020Y-120877656D01*
X157580760Y-120941485D01*
X157502273Y-120973995D01*
X157273465Y-121126880D01*
X157078880Y-121321465D01*
X156925995Y-121550273D01*
X156820686Y-121804510D01*
X156767000Y-122074408D01*
X147816704Y-122074408D01*
X147728005Y-121860273D01*
X147575120Y-121631465D01*
X147380535Y-121436880D01*
X147151727Y-121283995D01*
X146897490Y-121178686D01*
X146627592Y-121125000D01*
X146352408Y-121125000D01*
X146082510Y-121178686D01*
X145828273Y-121283995D01*
X145599465Y-121436880D01*
X145404880Y-121631465D01*
X145251995Y-121860273D01*
X145222308Y-121931943D01*
X145217636Y-121918977D01*
X145155656Y-121803020D01*
X144915565Y-121736040D01*
X144129605Y-122522000D01*
X144143748Y-122536143D01*
X143964143Y-122715748D01*
X143950000Y-122701605D01*
X143164040Y-123487565D01*
X143231020Y-123727656D01*
X143469934Y-123840000D01*
X141878603Y-123840000D01*
X142071727Y-123760005D01*
X142300535Y-123607120D01*
X142495120Y-123412535D01*
X142648005Y-123183727D01*
X142677692Y-123112057D01*
X142682364Y-123125023D01*
X142744344Y-123240980D01*
X142984435Y-123307960D01*
X143770395Y-122522000D01*
X142984435Y-121736040D01*
X142744344Y-121803020D01*
X142680515Y-121938760D01*
X142648005Y-121860273D01*
X142495120Y-121631465D01*
X142420090Y-121556435D01*
X143164040Y-121556435D01*
X143950000Y-122342395D01*
X144735960Y-121556435D01*
X144668980Y-121316344D01*
X144419952Y-121199244D01*
X144152865Y-121132977D01*
X143877983Y-121120090D01*
X143605867Y-121161078D01*
X143346977Y-121254364D01*
X143231020Y-121316344D01*
X143164040Y-121556435D01*
X142420090Y-121556435D01*
X142300535Y-121436880D01*
X142071727Y-121283995D01*
X141817490Y-121178686D01*
X141547592Y-121125000D01*
X141272408Y-121125000D01*
X141002510Y-121178686D01*
X140748273Y-121283995D01*
X140519465Y-121436880D01*
X140324880Y-121631465D01*
X140171995Y-121860273D01*
X140140000Y-121937515D01*
X140108005Y-121860273D01*
X139955120Y-121631465D01*
X139760535Y-121436880D01*
X139531727Y-121283995D01*
X139277490Y-121178686D01*
X139007592Y-121125000D01*
X138732408Y-121125000D01*
X138462510Y-121178686D01*
X138208273Y-121283995D01*
X137979465Y-121436880D01*
X137784880Y-121631465D01*
X137631995Y-121860273D01*
X137600000Y-121937515D01*
X137568005Y-121860273D01*
X137415120Y-121631465D01*
X137220535Y-121436880D01*
X137090000Y-121349659D01*
X137090000Y-121286801D01*
X138632784Y-119744017D01*
X156762090Y-119744017D01*
X156803078Y-120016133D01*
X156896364Y-120275023D01*
X156958344Y-120390980D01*
X157198435Y-120457960D01*
X157984395Y-119672000D01*
X158343605Y-119672000D01*
X159129565Y-120457960D01*
X159369656Y-120390980D01*
X159486756Y-120141952D01*
X159553023Y-119874865D01*
X159565910Y-119599983D01*
X159524922Y-119327867D01*
X159431636Y-119068977D01*
X159369656Y-118953020D01*
X159129565Y-118886040D01*
X158343605Y-119672000D01*
X157984395Y-119672000D01*
X157198435Y-118886040D01*
X156958344Y-118953020D01*
X156841244Y-119202048D01*
X156774977Y-119469135D01*
X156762090Y-119744017D01*
X138632784Y-119744017D01*
X139670366Y-118706435D01*
X157378040Y-118706435D01*
X158164000Y-119492395D01*
X158949960Y-118706435D01*
X158882980Y-118466344D01*
X158633952Y-118349244D01*
X158366865Y-118282977D01*
X158091983Y-118270090D01*
X157819867Y-118311078D01*
X157560977Y-118404364D01*
X157445020Y-118466344D01*
X157378040Y-118706435D01*
X139670366Y-118706435D01*
X144466803Y-113910000D01*
X156785199Y-113910000D01*
X157410393Y-114535195D01*
X157408541Y-114554000D01*
X157434317Y-114815706D01*
X157510653Y-115067354D01*
X157634618Y-115299275D01*
X157801445Y-115502555D01*
X158004725Y-115669382D01*
X158236646Y-115793347D01*
X158488294Y-115869683D01*
X158684421Y-115889000D01*
X158815579Y-115889000D01*
X158992749Y-115871550D01*
X161240001Y-118118803D01*
X161240000Y-131537048D01*
X161236324Y-131574370D01*
X161240000Y-131611692D01*
X161240000Y-131611702D01*
X161250997Y-131723355D01*
X161286535Y-131840510D01*
X161294454Y-131866616D01*
X161365026Y-131998646D01*
X161395685Y-132036004D01*
X161459999Y-132114371D01*
X161489003Y-132138174D01*
X164543587Y-135192758D01*
X164444880Y-135291465D01*
X164291995Y-135520273D01*
X164186686Y-135774510D01*
X164133000Y-136044408D01*
X164133000Y-136319592D01*
X164186686Y-136589490D01*
X164291995Y-136843727D01*
X164444880Y-137072535D01*
X164639465Y-137267120D01*
X164868273Y-137420005D01*
X164945515Y-137452000D01*
X164868273Y-137483995D01*
X164639465Y-137636880D01*
X164444880Y-137831465D01*
X164291995Y-138060273D01*
X164186686Y-138314510D01*
X164133000Y-138584408D01*
X164133000Y-138859592D01*
X164186686Y-139129490D01*
X164291995Y-139383727D01*
X164444880Y-139612535D01*
X164639465Y-139807120D01*
X164868273Y-139960005D01*
X164945515Y-139992000D01*
X164868273Y-140023995D01*
X164639465Y-140176880D01*
X164444880Y-140371465D01*
X164291995Y-140600273D01*
X164186686Y-140854510D01*
X164133000Y-141124408D01*
X164133000Y-141399592D01*
X164186686Y-141669490D01*
X164291995Y-141923727D01*
X164444880Y-142152535D01*
X164639465Y-142347120D01*
X164868273Y-142500005D01*
X164945515Y-142532000D01*
X164868273Y-142563995D01*
X164639465Y-142716880D01*
X164444880Y-142911465D01*
X164291995Y-143140273D01*
X164186686Y-143394510D01*
X164133000Y-143664408D01*
X164133000Y-143939592D01*
X164186686Y-144209490D01*
X164291995Y-144463727D01*
X164444880Y-144692535D01*
X164639465Y-144887120D01*
X164868273Y-145040005D01*
X164945515Y-145072000D01*
X164868273Y-145103995D01*
X164639465Y-145256880D01*
X164444880Y-145451465D01*
X164291995Y-145680273D01*
X164186686Y-145934510D01*
X164133000Y-146204408D01*
X164133000Y-146479592D01*
X164186686Y-146749490D01*
X164291995Y-147003727D01*
X164444880Y-147232535D01*
X164639465Y-147427120D01*
X164868273Y-147580005D01*
X165122510Y-147685314D01*
X165392408Y-147739000D01*
X165667592Y-147739000D01*
X165937490Y-147685314D01*
X166191727Y-147580005D01*
X166420535Y-147427120D01*
X166615120Y-147232535D01*
X166768005Y-147003727D01*
X166873314Y-146749490D01*
X166927000Y-146479592D01*
X166927000Y-146204408D01*
X166873314Y-145934510D01*
X166768005Y-145680273D01*
X166615120Y-145451465D01*
X166420535Y-145256880D01*
X166191727Y-145103995D01*
X166114485Y-145072000D01*
X166191727Y-145040005D01*
X166420535Y-144887120D01*
X166615120Y-144692535D01*
X166768005Y-144463727D01*
X166873314Y-144209490D01*
X166927000Y-143939592D01*
X166927000Y-143664408D01*
X166896372Y-143510430D01*
X167914802Y-142492000D01*
X171666678Y-142492000D01*
X171704000Y-142495676D01*
X171741322Y-142492000D01*
X171741333Y-142492000D01*
X171852986Y-142481003D01*
X171996247Y-142437546D01*
X172128276Y-142366974D01*
X172244001Y-142272001D01*
X172267804Y-142242997D01*
X172894801Y-141616000D01*
X179817928Y-141616000D01*
X179830188Y-141740482D01*
X179866498Y-141860180D01*
X179925463Y-141970494D01*
X180004815Y-142067185D01*
X180101506Y-142146537D01*
X180211820Y-142205502D01*
X180331518Y-142241812D01*
X180456000Y-142254072D01*
X181070250Y-142251000D01*
X181229000Y-142092250D01*
X181229000Y-140843000D01*
X181483000Y-140843000D01*
X181483000Y-142092250D01*
X181641750Y-142251000D01*
X182256000Y-142254072D01*
X182380482Y-142241812D01*
X182500180Y-142205502D01*
X182610494Y-142146537D01*
X182707185Y-142067185D01*
X182786537Y-141970494D01*
X182845502Y-141860180D01*
X182881812Y-141740482D01*
X182894072Y-141616000D01*
X182891000Y-141001750D01*
X182732250Y-140843000D01*
X181483000Y-140843000D01*
X181229000Y-140843000D01*
X179979750Y-140843000D01*
X179821000Y-141001750D01*
X179817928Y-141616000D01*
X172894801Y-141616000D01*
X173624005Y-140886797D01*
X173698889Y-140909513D01*
X173917050Y-140931000D01*
X174062950Y-140931000D01*
X174281111Y-140909513D01*
X174561034Y-140824599D01*
X174819014Y-140686706D01*
X175045134Y-140501134D01*
X175069607Y-140471313D01*
X175090498Y-140540180D01*
X175149463Y-140650494D01*
X175228815Y-140747185D01*
X175325506Y-140826537D01*
X175435820Y-140885502D01*
X175555518Y-140921812D01*
X175680000Y-140934072D01*
X177380000Y-140934072D01*
X177504482Y-140921812D01*
X177624180Y-140885502D01*
X177734494Y-140826537D01*
X177831185Y-140747185D01*
X177910537Y-140650494D01*
X177969502Y-140540180D01*
X178005812Y-140420482D01*
X178018072Y-140296000D01*
X178018072Y-138596000D01*
X178005812Y-138471518D01*
X177969502Y-138351820D01*
X177910537Y-138241506D01*
X177831185Y-138144815D01*
X177734494Y-138065463D01*
X177624180Y-138006498D01*
X177504482Y-137970188D01*
X177380000Y-137957928D01*
X176116729Y-137957928D01*
X175823804Y-137665003D01*
X175800001Y-137635999D01*
X175684276Y-137541026D01*
X175552247Y-137470454D01*
X175408986Y-137426997D01*
X175297333Y-137416000D01*
X175297322Y-137416000D01*
X175260000Y-137412324D01*
X175222678Y-137416000D01*
X173284821Y-137416000D01*
X173247498Y-137412324D01*
X173210175Y-137416000D01*
X173210166Y-137416000D01*
X173098513Y-137426997D01*
X172955252Y-137470454D01*
X172823223Y-137541026D01*
X172707498Y-137635999D01*
X172683700Y-137664997D01*
X172209002Y-138139696D01*
X172188211Y-138156759D01*
X172021034Y-138067401D01*
X171741111Y-137982487D01*
X171522950Y-137961000D01*
X171377050Y-137961000D01*
X171158889Y-137982487D01*
X170878966Y-138067401D01*
X170620986Y-138205294D01*
X170394866Y-138390866D01*
X170209294Y-138616986D01*
X170172405Y-138686000D01*
X166927000Y-138686000D01*
X166927000Y-138584408D01*
X166873314Y-138314510D01*
X166768005Y-138060273D01*
X166615120Y-137831465D01*
X166420535Y-137636880D01*
X166191727Y-137483995D01*
X166114485Y-137452000D01*
X166191727Y-137420005D01*
X166420535Y-137267120D01*
X166615120Y-137072535D01*
X166768005Y-136843727D01*
X166873314Y-136589490D01*
X166927000Y-136319592D01*
X166927000Y-136044408D01*
X166873314Y-135774510D01*
X166768005Y-135520273D01*
X166615120Y-135291465D01*
X166420535Y-135096880D01*
X166283951Y-135005617D01*
X166279003Y-134955384D01*
X166235546Y-134812123D01*
X166225312Y-134792977D01*
X166164974Y-134680093D01*
X166093799Y-134593367D01*
X166070001Y-134564369D01*
X166041003Y-134540571D01*
X162760000Y-131259569D01*
X162760000Y-117841322D01*
X162763676Y-117803999D01*
X162760000Y-117766676D01*
X162760000Y-117766667D01*
X162755208Y-117718009D01*
X164417628Y-119380430D01*
X164387000Y-119534408D01*
X164387000Y-119809592D01*
X164440686Y-120079490D01*
X164545995Y-120333727D01*
X164698880Y-120562535D01*
X164893465Y-120757120D01*
X165122273Y-120910005D01*
X165199515Y-120942000D01*
X165122273Y-120973995D01*
X164893465Y-121126880D01*
X164698880Y-121321465D01*
X164545995Y-121550273D01*
X164440686Y-121804510D01*
X164387000Y-122074408D01*
X164387000Y-122349592D01*
X164417628Y-122503570D01*
X163488998Y-123432201D01*
X163460000Y-123455999D01*
X163436202Y-123484997D01*
X163436201Y-123484998D01*
X163365026Y-123571724D01*
X163294454Y-123703754D01*
X163250998Y-123847015D01*
X163236324Y-123996000D01*
X163240001Y-124033332D01*
X163240000Y-127386677D01*
X163236324Y-127424000D01*
X163240000Y-127461322D01*
X163240000Y-127461332D01*
X163250997Y-127572985D01*
X163268376Y-127630276D01*
X163294454Y-127716246D01*
X163365026Y-127848276D01*
X163395372Y-127885252D01*
X163459999Y-127964001D01*
X163489002Y-127987804D01*
X164536200Y-129035002D01*
X164559999Y-129064001D01*
X164588997Y-129087799D01*
X164596815Y-129094215D01*
X164545995Y-129170273D01*
X164440686Y-129424510D01*
X164387000Y-129694408D01*
X164387000Y-129969592D01*
X164440686Y-130239490D01*
X164545995Y-130493727D01*
X164698880Y-130722535D01*
X164893465Y-130917120D01*
X165122273Y-131070005D01*
X165376510Y-131175314D01*
X165646408Y-131229000D01*
X165921592Y-131229000D01*
X166191490Y-131175314D01*
X166445727Y-131070005D01*
X166674535Y-130917120D01*
X166869120Y-130722535D01*
X167022005Y-130493727D01*
X167127314Y-130239490D01*
X167181000Y-129969592D01*
X167181000Y-129694408D01*
X167134168Y-129458970D01*
X170042253Y-132367055D01*
X169986487Y-132550889D01*
X169957815Y-132842000D01*
X169986487Y-133133111D01*
X170071401Y-133413034D01*
X170209294Y-133671014D01*
X170394866Y-133897134D01*
X170620986Y-134082706D01*
X170878966Y-134220599D01*
X171158889Y-134305513D01*
X171377050Y-134327000D01*
X171522950Y-134327000D01*
X171741111Y-134305513D01*
X172021034Y-134220599D01*
X172279014Y-134082706D01*
X172505134Y-133897134D01*
X172690706Y-133671014D01*
X172720000Y-133616209D01*
X172749294Y-133671014D01*
X172934866Y-133897134D01*
X173160986Y-134082706D01*
X173418966Y-134220599D01*
X173698889Y-134305513D01*
X173917050Y-134327000D01*
X174062950Y-134327000D01*
X174281111Y-134305513D01*
X174561034Y-134220599D01*
X174819014Y-134082706D01*
X175045134Y-133897134D01*
X175069607Y-133867313D01*
X175090498Y-133936180D01*
X175149463Y-134046494D01*
X175228815Y-134143185D01*
X175325506Y-134222537D01*
X175435820Y-134281502D01*
X175555518Y-134317812D01*
X175680000Y-134330072D01*
X177380000Y-134330072D01*
X177504482Y-134317812D01*
X177624180Y-134281502D01*
X177734494Y-134222537D01*
X177831185Y-134143185D01*
X177910537Y-134046494D01*
X177969502Y-133936180D01*
X178005812Y-133816482D01*
X178018072Y-133692000D01*
X178018072Y-131992874D01*
X178818000Y-132792802D01*
X178818001Y-136360668D01*
X178814324Y-136398000D01*
X178828998Y-136546985D01*
X178872454Y-136690246D01*
X178943026Y-136822276D01*
X179014201Y-136909002D01*
X179038000Y-136938001D01*
X179066998Y-136961799D01*
X179872269Y-137767070D01*
X179821000Y-138024816D01*
X179821000Y-138327184D01*
X179879989Y-138623743D01*
X179995701Y-138903095D01*
X180163688Y-139154505D01*
X180230127Y-139220944D01*
X180211820Y-139226498D01*
X180101506Y-139285463D01*
X180004815Y-139364815D01*
X179925463Y-139461506D01*
X179866498Y-139571820D01*
X179830188Y-139691518D01*
X179817928Y-139816000D01*
X179821000Y-140430250D01*
X179979750Y-140589000D01*
X181229000Y-140589000D01*
X181229000Y-140569000D01*
X181483000Y-140569000D01*
X181483000Y-140589000D01*
X182732250Y-140589000D01*
X182891000Y-140430250D01*
X182894072Y-139816000D01*
X182881812Y-139691518D01*
X182845502Y-139571820D01*
X182786537Y-139461506D01*
X182707185Y-139364815D01*
X182610494Y-139285463D01*
X182500180Y-139226498D01*
X182481873Y-139220944D01*
X182548312Y-139154505D01*
X182716299Y-138903095D01*
X182832011Y-138623743D01*
X182891000Y-138327184D01*
X182891000Y-138024816D01*
X182832011Y-137728257D01*
X182716299Y-137448905D01*
X182548312Y-137197495D01*
X182334505Y-136983688D01*
X182083095Y-136815701D01*
X181803743Y-136699989D01*
X181507184Y-136641000D01*
X181204816Y-136641000D01*
X180947070Y-136692269D01*
X180338000Y-136083199D01*
X180338000Y-135384450D01*
X180456000Y-135396072D01*
X181070250Y-135393000D01*
X181229000Y-135234250D01*
X181229000Y-133985000D01*
X181483000Y-133985000D01*
X181483000Y-135234250D01*
X181641750Y-135393000D01*
X182256000Y-135396072D01*
X182380482Y-135383812D01*
X182500180Y-135347502D01*
X182610494Y-135288537D01*
X182707185Y-135209185D01*
X182786537Y-135112494D01*
X182845502Y-135002180D01*
X182881812Y-134882482D01*
X182894072Y-134758000D01*
X182891000Y-134143750D01*
X182732250Y-133985000D01*
X181483000Y-133985000D01*
X181229000Y-133985000D01*
X181209000Y-133985000D01*
X181209000Y-133731000D01*
X181229000Y-133731000D01*
X181229000Y-133711000D01*
X181483000Y-133711000D01*
X181483000Y-133731000D01*
X182732250Y-133731000D01*
X182891000Y-133572250D01*
X182894072Y-132958000D01*
X182881812Y-132833518D01*
X182845502Y-132713820D01*
X182786537Y-132603506D01*
X182707185Y-132506815D01*
X182610494Y-132427463D01*
X182500180Y-132368498D01*
X182481873Y-132362944D01*
X182548312Y-132296505D01*
X182716299Y-132045095D01*
X182832011Y-131765743D01*
X182891000Y-131469184D01*
X182891000Y-131166816D01*
X182832011Y-130870257D01*
X182716299Y-130590905D01*
X182548312Y-130339495D01*
X182334505Y-130125688D01*
X182083095Y-129957701D01*
X181803743Y-129841989D01*
X181507184Y-129783000D01*
X181204816Y-129783000D01*
X180947070Y-129834269D01*
X180329793Y-129216992D01*
X180305991Y-129187989D01*
X180190266Y-129093016D01*
X180058237Y-129022444D01*
X179914976Y-128978987D01*
X179803323Y-128967990D01*
X179803312Y-128967990D01*
X179765990Y-128964314D01*
X179728668Y-128967990D01*
X173542793Y-128967990D01*
X168910000Y-124335199D01*
X168910000Y-115355333D01*
X168913677Y-115318000D01*
X168899003Y-115169014D01*
X168855546Y-115025753D01*
X168784974Y-114893724D01*
X168713799Y-114806997D01*
X168690001Y-114777999D01*
X168661004Y-114754202D01*
X165143645Y-111236844D01*
X165165000Y-111129486D01*
X165165000Y-110866514D01*
X165113696Y-110608595D01*
X165013061Y-110365641D01*
X164866962Y-110146987D01*
X164681013Y-109961038D01*
X164462359Y-109814939D01*
X164219405Y-109714304D01*
X163961486Y-109663000D01*
X163698514Y-109663000D01*
X163440595Y-109714304D01*
X163197641Y-109814939D01*
X162978987Y-109961038D01*
X162793038Y-110146987D01*
X162646939Y-110365641D01*
X162546304Y-110608595D01*
X162495000Y-110866514D01*
X162495000Y-111129486D01*
X162546304Y-111387405D01*
X162646939Y-111630359D01*
X162793038Y-111849013D01*
X162978987Y-112034962D01*
X163197641Y-112181061D01*
X163440595Y-112281696D01*
X163698514Y-112333000D01*
X163961486Y-112333000D01*
X164068844Y-112311645D01*
X165551198Y-113794000D01*
X164927775Y-113794000D01*
X164866962Y-113702987D01*
X164681013Y-113517038D01*
X164462359Y-113370939D01*
X164219405Y-113270304D01*
X163961486Y-113219000D01*
X163698514Y-113219000D01*
X163440595Y-113270304D01*
X163197641Y-113370939D01*
X162978987Y-113517038D01*
X162793038Y-113702987D01*
X162646939Y-113921641D01*
X162546304Y-114164595D01*
X162495000Y-114422514D01*
X162495000Y-114685486D01*
X162546304Y-114943405D01*
X162646939Y-115186359D01*
X162793038Y-115405013D01*
X162978987Y-115590962D01*
X163197641Y-115737061D01*
X163440595Y-115837696D01*
X163698514Y-115889000D01*
X163961486Y-115889000D01*
X164219405Y-115837696D01*
X164462359Y-115737061D01*
X164681013Y-115590962D01*
X164866962Y-115405013D01*
X164927775Y-115314000D01*
X166309199Y-115314000D01*
X166940000Y-115944802D01*
X166940000Y-118887545D01*
X166869120Y-118781465D01*
X166674535Y-118586880D01*
X166445727Y-118433995D01*
X166191490Y-118328686D01*
X165921592Y-118275000D01*
X165646408Y-118275000D01*
X165492430Y-118305628D01*
X159510000Y-112323199D01*
X159510000Y-112101298D01*
X159698555Y-111946555D01*
X159865382Y-111743275D01*
X159989347Y-111511354D01*
X160065683Y-111259706D01*
X160091459Y-110998000D01*
X160065683Y-110736294D01*
X159989347Y-110484646D01*
X159865382Y-110252725D01*
X159698555Y-110049445D01*
X159495275Y-109882618D01*
X159263354Y-109758653D01*
X159011706Y-109682317D01*
X158815579Y-109663000D01*
X158684421Y-109663000D01*
X158488294Y-109682317D01*
X158236646Y-109758653D01*
X158004725Y-109882618D01*
X157801445Y-110049445D01*
X157634618Y-110252725D01*
X157510653Y-110484646D01*
X157434317Y-110736294D01*
X157408541Y-110998000D01*
X157432450Y-111240749D01*
X156783199Y-111890000D01*
X143699322Y-111890000D01*
X143661999Y-111886324D01*
X143624676Y-111890000D01*
X143624667Y-111890000D01*
X143513014Y-111900997D01*
X143369753Y-111944454D01*
X143237724Y-112015026D01*
X143121999Y-112109999D01*
X143098201Y-112138997D01*
X134081571Y-121155628D01*
X133927592Y-121125000D01*
X133652408Y-121125000D01*
X133382510Y-121178686D01*
X133128273Y-121283995D01*
X132899465Y-121436880D01*
X132704880Y-121631465D01*
X132551995Y-121860273D01*
X132520000Y-121937515D01*
X132488005Y-121860273D01*
X132335120Y-121631465D01*
X132140535Y-121436880D01*
X131911727Y-121283995D01*
X131657490Y-121178686D01*
X131387592Y-121125000D01*
X131112408Y-121125000D01*
X130842510Y-121178686D01*
X130588273Y-121283995D01*
X130359465Y-121436880D01*
X130164880Y-121631465D01*
X130011995Y-121860273D01*
X129980000Y-121937515D01*
X129948005Y-121860273D01*
X129795120Y-121631465D01*
X129600535Y-121436880D01*
X129371727Y-121283995D01*
X129117490Y-121178686D01*
X128847592Y-121125000D01*
X128572408Y-121125000D01*
X128302510Y-121178686D01*
X128048273Y-121283995D01*
X127819465Y-121436880D01*
X127624880Y-121631465D01*
X127471995Y-121860273D01*
X127440000Y-121937515D01*
X127408005Y-121860273D01*
X127255120Y-121631465D01*
X127060535Y-121436880D01*
X126831727Y-121283995D01*
X126577490Y-121178686D01*
X126307592Y-121125000D01*
X126032408Y-121125000D01*
X125762510Y-121178686D01*
X125728000Y-121192981D01*
X125728000Y-116418801D01*
X136038431Y-106108372D01*
X136192408Y-106139000D01*
X136467592Y-106139000D01*
X136737490Y-106085314D01*
X136991727Y-105980005D01*
X137220535Y-105827120D01*
X137415120Y-105632535D01*
X137568005Y-105403727D01*
X137600000Y-105326485D01*
X137631995Y-105403727D01*
X137784880Y-105632535D01*
X137979465Y-105827120D01*
X138208273Y-105980005D01*
X138462510Y-106085314D01*
X138732408Y-106139000D01*
X139007592Y-106139000D01*
X139277490Y-106085314D01*
X139531727Y-105980005D01*
X139760535Y-105827120D01*
X139955120Y-105632535D01*
X140108005Y-105403727D01*
X140140000Y-105326485D01*
X140171995Y-105403727D01*
X140324880Y-105632535D01*
X140519465Y-105827120D01*
X140748273Y-105980005D01*
X141002510Y-106085314D01*
X141272408Y-106139000D01*
X141547592Y-106139000D01*
X141817490Y-106085314D01*
X142071727Y-105980005D01*
X142300535Y-105827120D01*
X142495120Y-105632535D01*
X142648005Y-105403727D01*
X142680000Y-105326485D01*
X142711995Y-105403727D01*
X142864880Y-105632535D01*
X143059465Y-105827120D01*
X143288273Y-105980005D01*
X143542510Y-106085314D01*
X143812408Y-106139000D01*
X144087592Y-106139000D01*
X144357490Y-106085314D01*
X144611727Y-105980005D01*
X144840535Y-105827120D01*
X145035120Y-105632535D01*
X145188005Y-105403727D01*
X145220000Y-105326485D01*
X145251995Y-105403727D01*
X145404880Y-105632535D01*
X145599465Y-105827120D01*
X145828273Y-105980005D01*
X146082510Y-106085314D01*
X146352408Y-106139000D01*
X146627592Y-106139000D01*
X146897490Y-106085314D01*
X147151727Y-105980005D01*
X147380535Y-105827120D01*
X147575120Y-105632535D01*
X147728005Y-105403727D01*
X147833314Y-105149490D01*
X147887000Y-104879592D01*
X147887000Y-104604408D01*
X147833314Y-104334510D01*
X147728005Y-104080273D01*
X147575120Y-103851465D01*
X147380535Y-103656880D01*
X147151727Y-103503995D01*
X146897490Y-103398686D01*
X146627592Y-103345000D01*
X146352408Y-103345000D01*
X146082510Y-103398686D01*
X145828273Y-103503995D01*
X145599465Y-103656880D01*
X145404880Y-103851465D01*
X145251995Y-104080273D01*
X145220000Y-104157515D01*
X145188005Y-104080273D01*
X145035120Y-103851465D01*
X144840535Y-103656880D01*
X144611727Y-103503995D01*
X144357490Y-103398686D01*
X144087592Y-103345000D01*
X143812408Y-103345000D01*
X143542510Y-103398686D01*
X143288273Y-103503995D01*
X143059465Y-103656880D01*
X142864880Y-103851465D01*
X142711995Y-104080273D01*
X142680000Y-104157515D01*
X142648005Y-104080273D01*
X142495120Y-103851465D01*
X142300535Y-103656880D01*
X142071727Y-103503995D01*
X141817490Y-103398686D01*
X141547592Y-103345000D01*
X141272408Y-103345000D01*
X141002510Y-103398686D01*
X140748273Y-103503995D01*
X140519465Y-103656880D01*
X140324880Y-103851465D01*
X140171995Y-104080273D01*
X140140000Y-104157515D01*
X140108005Y-104080273D01*
X139955120Y-103851465D01*
X139760535Y-103656880D01*
X139531727Y-103503995D01*
X139277490Y-103398686D01*
X139007592Y-103345000D01*
X138732408Y-103345000D01*
X138462510Y-103398686D01*
X138208273Y-103503995D01*
X137979465Y-103656880D01*
X137784880Y-103851465D01*
X137631995Y-104080273D01*
X137600000Y-104157515D01*
X137568005Y-104080273D01*
X137415120Y-103851465D01*
X137220535Y-103656880D01*
X136991727Y-103503995D01*
X136737490Y-103398686D01*
X136467592Y-103345000D01*
X136192408Y-103345000D01*
X135922510Y-103398686D01*
X135668273Y-103503995D01*
X135439465Y-103656880D01*
X135244880Y-103851465D01*
X135091995Y-104080273D01*
X135060000Y-104157515D01*
X135028005Y-104080273D01*
X134875120Y-103851465D01*
X134680535Y-103656880D01*
X134451727Y-103503995D01*
X134197490Y-103398686D01*
X133927592Y-103345000D01*
X133652408Y-103345000D01*
X133382510Y-103398686D01*
X133128273Y-103503995D01*
X132899465Y-103656880D01*
X132704880Y-103851465D01*
X132551995Y-104080273D01*
X132520000Y-104157515D01*
X132488005Y-104080273D01*
X132335120Y-103851465D01*
X132140535Y-103656880D01*
X131911727Y-103503995D01*
X131657490Y-103398686D01*
X131387592Y-103345000D01*
X131112408Y-103345000D01*
X130842510Y-103398686D01*
X130588273Y-103503995D01*
X130359465Y-103656880D01*
X130164880Y-103851465D01*
X130011995Y-104080273D01*
X129980000Y-104157515D01*
X129948005Y-104080273D01*
X129795120Y-103851465D01*
X129600535Y-103656880D01*
X129371727Y-103503995D01*
X129117490Y-103398686D01*
X128847592Y-103345000D01*
X128572408Y-103345000D01*
X128302510Y-103398686D01*
X128048273Y-103503995D01*
X127819465Y-103656880D01*
X127624880Y-103851465D01*
X127471995Y-104080273D01*
X127440000Y-104157515D01*
X127408005Y-104080273D01*
X127255120Y-103851465D01*
X127060535Y-103656880D01*
X126831727Y-103503995D01*
X126577490Y-103398686D01*
X126307592Y-103345000D01*
X126032408Y-103345000D01*
X125762510Y-103398686D01*
X125508273Y-103503995D01*
X125279465Y-103656880D01*
X125084880Y-103851465D01*
X124931995Y-104080273D01*
X124900000Y-104157515D01*
X124868005Y-104080273D01*
X124715120Y-103851465D01*
X124520535Y-103656880D01*
X124291727Y-103503995D01*
X124037490Y-103398686D01*
X123767592Y-103345000D01*
X123492408Y-103345000D01*
X123222510Y-103398686D01*
X122968273Y-103503995D01*
X122739465Y-103656880D01*
X122544880Y-103851465D01*
X122391995Y-104080273D01*
X122360000Y-104157515D01*
X122328005Y-104080273D01*
X122175120Y-103851465D01*
X121980535Y-103656880D01*
X121751727Y-103503995D01*
X121497490Y-103398686D01*
X121227592Y-103345000D01*
X120952408Y-103345000D01*
X120682510Y-103398686D01*
X120428273Y-103503995D01*
X120199465Y-103656880D01*
X120004880Y-103851465D01*
X119851995Y-104080273D01*
X119820000Y-104157515D01*
X119788005Y-104080273D01*
X119635120Y-103851465D01*
X119440535Y-103656880D01*
X119211727Y-103503995D01*
X118957490Y-103398686D01*
X118687592Y-103345000D01*
X118412408Y-103345000D01*
X118142510Y-103398686D01*
X117888273Y-103503995D01*
X117659465Y-103656880D01*
X117464880Y-103851465D01*
X117311995Y-104080273D01*
X117280000Y-104157515D01*
X117248005Y-104080273D01*
X117095120Y-103851465D01*
X116900535Y-103656880D01*
X116671727Y-103503995D01*
X116417490Y-103398686D01*
X116147592Y-103345000D01*
X115872408Y-103345000D01*
X115602510Y-103398686D01*
X115348273Y-103503995D01*
X115119465Y-103656880D01*
X114924880Y-103851465D01*
X114771995Y-104080273D01*
X114740000Y-104157515D01*
X114708005Y-104080273D01*
X114555120Y-103851465D01*
X114360535Y-103656880D01*
X114131727Y-103503995D01*
X113877490Y-103398686D01*
X113607592Y-103345000D01*
X113332408Y-103345000D01*
X113062510Y-103398686D01*
X112808273Y-103503995D01*
X112579465Y-103656880D01*
X112384880Y-103851465D01*
X112231995Y-104080273D01*
X112126686Y-104334510D01*
X112073000Y-104604408D01*
X112073000Y-104879592D01*
X112126686Y-105149490D01*
X112231995Y-105403727D01*
X112384880Y-105632535D01*
X112579465Y-105827120D01*
X112808273Y-105980005D01*
X113062510Y-106085314D01*
X113332408Y-106139000D01*
X113607592Y-106139000D01*
X113877490Y-106085314D01*
X114131727Y-105980005D01*
X114360535Y-105827120D01*
X114555120Y-105632535D01*
X114708005Y-105403727D01*
X114740000Y-105326485D01*
X114771995Y-105403727D01*
X114924880Y-105632535D01*
X115119465Y-105827120D01*
X115348273Y-105980005D01*
X115602510Y-106085314D01*
X115872408Y-106139000D01*
X116147592Y-106139000D01*
X116417490Y-106085314D01*
X116671727Y-105980005D01*
X116900535Y-105827120D01*
X117095120Y-105632535D01*
X117248005Y-105403727D01*
X117280000Y-105326485D01*
X117311995Y-105403727D01*
X117464880Y-105632535D01*
X117659465Y-105827120D01*
X117790001Y-105914341D01*
X117790000Y-107285198D01*
X111088998Y-113986201D01*
X111060000Y-114009999D01*
X111036202Y-114038997D01*
X111036201Y-114038998D01*
X110965026Y-114125724D01*
X110894454Y-114257754D01*
X110883977Y-114292294D01*
X110855749Y-114385354D01*
X110850998Y-114401015D01*
X110836324Y-114550000D01*
X108330486Y-114550000D01*
X108331000Y-112776037D01*
X108331000Y-112775953D01*
X108327000Y-102000000D01*
X108327000Y-100685000D01*
X182966495Y-100685000D01*
X183254782Y-100713267D01*
G36*
X132496473Y-130928726D02*
G01*
X132300273Y-131009995D01*
X132071465Y-131162880D01*
X131876880Y-131357465D01*
X131789659Y-131488000D01*
X131546802Y-131488000D01*
X128797801Y-128739000D01*
X128905002Y-128739000D01*
X128905002Y-128574156D01*
X129134890Y-128695476D01*
X129282099Y-128650825D01*
X129544920Y-128525641D01*
X129778269Y-128351588D01*
X129973178Y-128135355D01*
X130122157Y-127885252D01*
X130219481Y-127610891D01*
X130098814Y-127381000D01*
X128905000Y-127381000D01*
X128905000Y-127401000D01*
X128651000Y-127401000D01*
X128651000Y-127381000D01*
X128631000Y-127381000D01*
X128631000Y-127127000D01*
X128651000Y-127127000D01*
X128651000Y-125933845D01*
X128905000Y-125933845D01*
X128905000Y-127127000D01*
X130098814Y-127127000D01*
X130219481Y-126897109D01*
X130122157Y-126622748D01*
X129973178Y-126372645D01*
X129778269Y-126156412D01*
X129544920Y-125982359D01*
X129282099Y-125857175D01*
X129134890Y-125812524D01*
X128905000Y-125933845D01*
X128651000Y-125933845D01*
X128421110Y-125812524D01*
X128273901Y-125857175D01*
X128011080Y-125982359D01*
X127777731Y-126156412D01*
X127582822Y-126372645D01*
X127513201Y-126489523D01*
X127478706Y-126424986D01*
X127293134Y-126198866D01*
X127067014Y-126013294D01*
X126902461Y-125925339D01*
X128067800Y-124760000D01*
X138665198Y-124760000D01*
X132496473Y-130928726D01*
X132496473Y-130928726D01*
G37*
X132496473Y-130928726D02*
X132300273Y-131009995D01*
X132071465Y-131162880D01*
X131876880Y-131357465D01*
X131789659Y-131488000D01*
X131546802Y-131488000D01*
X128797801Y-128739000D01*
X128905002Y-128739000D01*
X128905002Y-128574156D01*
X129134890Y-128695476D01*
X129282099Y-128650825D01*
X129544920Y-128525641D01*
X129778269Y-128351588D01*
X129973178Y-128135355D01*
X130122157Y-127885252D01*
X130219481Y-127610891D01*
X130098814Y-127381000D01*
X128905000Y-127381000D01*
X128905000Y-127401000D01*
X128651000Y-127401000D01*
X128651000Y-127381000D01*
X128631000Y-127381000D01*
X128631000Y-127127000D01*
X128651000Y-127127000D01*
X128651000Y-125933845D01*
X128905000Y-125933845D01*
X128905000Y-127127000D01*
X130098814Y-127127000D01*
X130219481Y-126897109D01*
X130122157Y-126622748D01*
X129973178Y-126372645D01*
X129778269Y-126156412D01*
X129544920Y-125982359D01*
X129282099Y-125857175D01*
X129134890Y-125812524D01*
X128905000Y-125933845D01*
X128651000Y-125933845D01*
X128421110Y-125812524D01*
X128273901Y-125857175D01*
X128011080Y-125982359D01*
X127777731Y-126156412D01*
X127582822Y-126372645D01*
X127513201Y-126489523D01*
X127478706Y-126424986D01*
X127293134Y-126198866D01*
X127067014Y-126013294D01*
X126902461Y-125925339D01*
X128067800Y-124760000D01*
X138665198Y-124760000D01*
X132496473Y-130928726D01*
M02*
