M48
; DRILL file {KiCad (5.1.4)-1} date 4/21/2020 4:32:26 PM
; FORMAT={-:-/ absolute / inch / decimal}
; #@! TF.CreationDate,2020-04-21T16:32:26+02:00
; #@! TF.GenerationSoftware,Kicad,Pcbnew,(5.1.4)-1
FMAT,2
INCH
T1C0.0276
T2C0.0300
T3C0.0354
T4C0.0394
T5C0.0787
T6C0.1260
T7C0.0945
%
G90
G05
T1
X6.25Y-4.37
X6.45Y-4.37
X6.25Y-4.51
X6.45Y-4.51
T2
X5.2347Y-5.2066
X5.2347Y-5.3066
X5.2347Y-5.4066
X5.2347Y-5.5066
X5.2347Y-5.6066
X6.2269Y-4.7115
X6.2269Y-4.8115
X6.2269Y-4.9115
X6.2269Y-5.0115
X6.2269Y-5.1115
X6.5269Y-4.7115
X6.5269Y-4.8115
X6.5269Y-4.9115
X6.5269Y-5.0115
X6.5269Y-5.1115
X4.4673Y-4.1237
X4.4673Y-4.8237
X4.5673Y-4.1237
X4.5673Y-4.8237
X4.6673Y-4.1237
X4.6673Y-4.8237
X4.7673Y-4.1237
X4.7673Y-4.8237
X4.8673Y-4.1237
X4.8673Y-4.8237
X4.9673Y-4.1237
X4.9673Y-4.8237
X5.0673Y-4.1237
X5.0673Y-4.8237
X5.1673Y-4.1237
X5.1673Y-4.8237
X5.2673Y-4.1237
X5.2673Y-4.8237
X5.3673Y-4.1237
X5.3673Y-4.8237
X5.4673Y-4.1237
X5.4673Y-4.8237
X5.5673Y-4.1237
X5.5673Y-4.8237
X5.6673Y-4.1237
X5.6673Y-4.8237
X5.7673Y-4.1237
X5.7673Y-4.8237
X6.2169Y-5.3615
X6.2169Y-5.4615
X6.2169Y-5.5615
X6.2169Y-5.6615
X6.2169Y-5.7615
X6.5169Y-5.3615
X6.5169Y-5.4615
X6.5169Y-5.5615
X6.5169Y-5.6615
X6.5169Y-5.7615
X4.4806Y-5.2213
X4.4806Y-5.3213
X4.4806Y-5.4213
X4.4806Y-5.5213
X4.4806Y-5.6213
T3
X7.14Y-5.44
X7.14Y-5.54
X7.14Y-5.17
X7.14Y-5.27
T4
X6.83Y-5.77
X6.93Y-5.77
X4.77Y-5.01
X4.87Y-5.01
X4.97Y-5.01
X5.07Y-5.01
X6.75Y-5.49
X6.85Y-5.49
X6.95Y-5.49
X6.75Y-5.23
X6.85Y-5.23
X6.95Y-5.23
T5
X5.56Y-5.02
X5.9222Y-5.02
T6
X4.1145Y-5.1102
X4.1145Y-5.7244
T7
X5.7411Y-5.0672
T0
M30
